<svg width="1920" height="1080" viewBox="0 0 1920 1080" fill="none" xmlns="http://www.w3.org/2000/svg">
<rect width="1920" height="1080" fill="white"/>
<path d="M1207.32 490.392C1211.93 490.392 1216.02 491.053 1219.61 492.376C1223.19 493.656 1226.22 495.405 1228.7 497.624C1231.17 499.842 1233.05 502.424 1234.33 505.368C1235.61 508.269 1236.25 511.341 1236.25 514.584C1236.25 517.528 1235.95 520.13 1235.35 522.392C1234.75 524.61 1233.86 526.552 1232.66 528.216C1231.51 529.837 1230.06 531.224 1228.31 532.376C1226.61 533.528 1224.64 534.488 1222.42 535.256C1232.75 538.84 1237.91 545.858 1237.91 556.312C1237.91 561.261 1237.02 565.57 1235.22 569.24C1233.43 572.909 1231.02 575.96 1227.99 578.392C1225.01 580.824 1221.53 582.658 1217.56 583.896C1213.59 585.09 1209.45 585.688 1205.14 585.688C1200.71 585.688 1196.76 585.218 1193.3 584.28C1189.85 583.298 1186.78 581.805 1184.09 579.8C1181.4 577.752 1179.03 575.149 1176.98 571.992C1174.98 568.834 1173.23 565.08 1171.74 560.728L1180.57 557.144C1181.34 556.802 1182.08 556.568 1182.81 556.44C1183.58 556.312 1184.32 556.248 1185.05 556.248C1186.41 556.248 1187.63 556.525 1188.7 557.08C1189.81 557.592 1190.64 558.36 1191.19 559.384C1193.11 562.925 1195.14 565.506 1197.27 567.128C1199.45 568.706 1201.99 569.496 1204.89 569.496C1207.11 569.496 1209.03 569.133 1210.65 568.408C1212.31 567.64 1213.68 566.68 1214.74 565.528C1215.85 564.333 1216.69 562.989 1217.24 561.496C1217.79 560.002 1218.07 558.488 1218.07 556.952C1218.07 554.946 1217.92 553.154 1217.62 551.576C1217.37 549.954 1216.6 548.568 1215.32 547.416C1214.04 546.264 1212.1 545.389 1209.5 544.792C1206.94 544.152 1203.35 543.832 1198.74 543.832V530.136C1202.63 530.136 1205.76 529.837 1208.15 529.24C1210.54 528.642 1212.38 527.832 1213.66 526.808C1214.98 525.741 1215.85 524.461 1216.28 522.968C1216.71 521.474 1216.92 519.832 1216.92 518.04C1216.92 514.37 1216.02 511.554 1214.23 509.592C1212.48 507.586 1209.79 506.584 1206.17 506.584C1204.67 506.584 1203.31 506.797 1202.07 507.224C1200.83 507.65 1199.73 508.226 1198.74 508.952C1197.76 509.677 1196.91 510.53 1196.18 511.512C1195.5 512.493 1194.95 513.56 1194.52 514.712C1193.84 516.632 1192.96 518.018 1191.9 518.872C1190.87 519.725 1189.46 520.152 1187.67 520.152C1187.25 520.152 1186.78 520.13 1186.26 520.088C1185.79 520.045 1185.3 519.981 1184.79 519.896L1174.3 518.04C1174.98 513.389 1176.28 509.336 1178.2 505.88C1180.16 502.424 1182.57 499.544 1185.43 497.24C1188.33 494.936 1191.64 493.229 1195.35 492.12C1199.06 490.968 1203.05 490.392 1207.32 490.392Z" fill="#283A97"/>
<path d="M1252.67 445H1158C1131.86 445 1110.67 466.191 1110.67 492.332V586.995C1110.67 613.136 1131.86 634.327 1158 634.327H1252.67C1278.81 634.327 1300 613.136 1300 586.995V492.332C1300 466.191 1278.81 445 1252.67 445Z" stroke="#283A97" stroke-width="28.3991" stroke-linecap="round" stroke-linejoin="round"/>
<path d="M959.136 490.392C963.744 490.392 967.883 491.074 971.552 492.44C975.264 493.762 978.421 495.618 981.024 498.008C983.627 500.397 985.611 503.256 986.976 506.584C988.384 509.869 989.088 513.496 989.088 517.464C989.088 520.877 988.597 524.034 987.616 526.936C986.677 529.837 985.376 532.61 983.712 535.256C982.048 537.858 980.107 540.397 977.888 542.872C975.712 545.304 973.387 547.778 970.912 550.296L952.672 568.984C955.019 568.301 957.323 567.768 959.584 567.384C961.888 566.957 964.043 566.744 966.048 566.744H983.456C985.589 566.744 987.275 567.341 988.512 568.536C989.749 569.688 990.368 571.224 990.368 573.144V584.664H924.832V578.264C924.832 577.026 925.088 575.704 925.6 574.296C926.112 572.888 927.008 571.608 928.288 570.456L955.168 543.384C957.472 541.08 959.477 538.882 961.184 536.792C962.891 534.701 964.299 532.653 965.408 530.648C966.517 528.6 967.349 526.573 967.904 524.568C968.459 522.52 968.736 520.365 968.736 518.104C968.736 514.392 967.84 511.554 966.048 509.592C964.299 507.586 961.611 506.584 957.984 506.584C956.491 506.584 955.125 506.797 953.888 507.224C952.651 507.65 951.541 508.226 950.56 508.952C949.579 509.677 948.725 510.53 948 511.512C947.317 512.493 946.763 513.56 946.336 514.712C945.653 516.632 944.779 518.018 943.712 518.872C942.688 519.725 941.28 520.152 939.488 520.152C939.061 520.152 938.592 520.13 938.08 520.088C937.611 520.045 937.12 519.981 936.608 519.896L926.112 518.04C926.795 513.389 928.096 509.336 930.016 505.88C931.979 502.424 934.389 499.544 937.248 497.24C940.149 494.936 943.456 493.229 947.168 492.12C950.88 490.968 954.869 490.392 959.136 490.392Z" fill="#283A97"/>
<path d="M1007 445H912.332C886.191 445 865 466.191 865 492.332V586.995C865 613.136 886.191 634.327 912.332 634.327H1007C1033.14 634.327 1054.33 613.136 1054.33 586.995V492.332C1054.33 466.191 1033.14 445 1007 445Z" stroke="#283A97" stroke-width="28.3991" stroke-linecap="round" stroke-linejoin="round"/>
<path d="M693.128 570.328H711.048V523.288C711.048 520.984 711.112 518.573 711.24 516.056L700.68 524.824C699.997 525.378 699.315 525.784 698.632 526.04C697.949 526.253 697.288 526.36 696.648 526.36C695.539 526.36 694.536 526.125 693.64 525.656C692.787 525.144 692.147 524.61 691.72 524.056L685.448 515.736L714.504 491.352H730.888V570.328H746.248V584.664H693.128V570.328Z" fill="#283A97"/>
<path d="M761.995 445H667.332C641.191 445 620 466.191 620 492.332V586.995C620 613.136 641.191 634.327 667.332 634.327H761.995C788.136 634.327 809.327 613.136 809.327 586.995V492.332C809.327 466.191 788.136 445 761.995 445Z" stroke="#283A97" stroke-width="28.3991" stroke-linecap="round" stroke-linejoin="round"/>
</svg>
