<svg width="1920" height="1080" viewBox="0 0 1920 1080" fill="none" xmlns="http://www.w3.org/2000/svg">
<rect width="1920" height="1080" fill="white"/>
<path d="M720 480C704.087 480 688.826 473.679 677.574 462.426C666.321 451.174 660 435.913 660 420V300C660 284.087 666.321 268.826 677.574 257.574C688.826 246.321 704.087 240 720 240H840C855.913 240 871.174 246.321 882.426 257.574C893.679 268.826 900 284.087 900 300M1020 780C1020 795.913 1026.32 811.174 1037.57 822.426C1048.83 833.679 1064.09 840 1080 840H1200C1215.91 840 1231.17 833.679 1242.43 822.426C1253.68 811.174 1260 795.913 1260 780V660C1260 644.087 1253.68 628.826 1242.43 617.574C1231.17 606.321 1215.91 600 1200 600M900 420H1020C1053.14 420 1080 446.863 1080 480V600C1080 633.137 1053.14 660 1020 660H900C866.863 660 840 633.137 840 600V480C840 446.863 866.863 420 900 420Z" stroke="#283A97" stroke-width="36" stroke-linecap="round" stroke-linejoin="round"/>
</svg>
