<svg width="1920" height="1080" viewBox="0 0 1920 1080" fill="none" xmlns="http://www.w3.org/2000/svg">
<rect width="1920" height="1080" fill="white"/>
<path d="M1057.75 324C1057.75 308.087 1062.49 292.826 1070.93 281.574C1079.37 270.321 1090.82 264 1102.75 264H1192.75C1204.68 264 1216.13 270.321 1224.57 281.574C1233.01 292.826 1237.75 308.087 1237.75 324" stroke="#283A97" stroke-width="27" stroke-linecap="round" stroke-linejoin="round"/>
<path d="M840.75 324C840.75 308.087 845.491 292.826 853.93 281.574C862.369 270.321 873.815 264 885.75 264H975.75C987.685 264 999.131 270.321 1007.57 281.574C1016.01 292.826 1020.75 308.087 1020.75 324" stroke="#283A97" stroke-width="27" stroke-linecap="round" stroke-linejoin="round"/>
<path d="M636.18 281.574C627.741 292.826 623 308.087 623 324V786C623 802.569 636.431 816 653 816H1266C1282.57 816 1296 802.569 1296 786V354C1296 337.431 1282.57 324 1266 324H803C803 308.087 798.259 292.826 789.82 281.574C781.381 270.321 769.935 264 758 264H668C656.065 264 644.619 270.321 636.18 281.574Z" stroke="#283A97" stroke-width="27" stroke-linecap="round" stroke-linejoin="round"/>
</svg>
