<svg width="1920" height="1080" viewBox="0 0 1920 1080" fill="none" xmlns="http://www.w3.org/2000/svg">
<rect width="1920" height="1080" fill="white"/>
<path d="M960 269.999H750C734.087 269.999 718.826 276.321 707.574 287.573C696.321 298.825 690 314.086 690 329.999V750C690 765.913 696.321 781.174 707.574 792.426C718.826 803.678 734.087 810 750 810H1170C1185.91 810 1201.17 803.678 1212.43 792.426C1223.68 781.174 1230 765.913 1230 750V540M1151.25 258.749C1163.18 246.815 1179.37 240.11 1196.25 240.11C1213.13 240.11 1229.32 246.815 1241.25 258.749C1253.18 270.684 1259.89 286.871 1259.89 303.749C1259.89 320.628 1253.18 336.815 1241.25 348.749L970.86 619.17C963.736 626.287 954.936 631.497 945.27 634.319L859.08 659.519C856.499 660.272 853.762 660.318 851.157 659.65C848.552 658.983 846.175 657.628 844.273 655.726C842.372 653.825 841.017 651.447 840.349 648.842C839.682 646.237 839.727 643.501 840.48 640.92L865.68 554.729C868.516 545.071 873.736 536.281 880.86 529.17L1151.25 258.749Z" stroke="#283A97" stroke-width="36" stroke-linecap="round" stroke-linejoin="round"/>
</svg>
