<svg width="1920" height="1080" viewBox="0 0 1920 1080" fill="none" xmlns="http://www.w3.org/2000/svg">
<rect width="1920" height="1080" fill="white"/>
<path d="M1230 630L1137.42 537.42C1126.17 526.172 1110.91 519.853 1095 519.853C1079.09 519.853 1063.83 526.172 1052.58 537.42L780 810M750 270H1170C1203.14 270 1230 296.863 1230 330V750C1230 783.137 1203.14 810 1170 810H750C716.863 810 690 783.137 690 750V330C690 296.863 716.863 270 750 270ZM930 450C930 483.137 903.137 510 870 510C836.863 510 810 483.137 810 450C810 416.863 836.863 390 870 390C903.137 390 930 416.863 930 450Z" stroke="#283A97" stroke-width="36" stroke-linecap="round" stroke-linejoin="round"/>
</svg>
