<svg width="16" height="16" viewBox="0 0 16 16" fill="none" xmlns="http://www.w3.org/2000/svg">
<g clip-path="url(#clip0_22_44)">
<rect width="16" height="16" rx="3.75" fill="#52A1B9"/>
<path d="M7.82622 10.7292C7.20559 10.7473 6.58501 10.6917 5.9775 10.5635C5.75658 10.5185 5.54964 10.4213 5.37394 10.28C5.19824 10.1387 5.05888 9.95745 4.96749 9.75135C4.78658 9.33417 4.69907 8.6908 4.70498 7.82124C4.70829 7.36685 4.73677 6.913 4.7903 6.46176C4.84236 6.02228 4.89442 5.66013 4.94649 5.3753L5.00129 5.09212C5.00194 5.08382 5.00194 5.07548 5.00129 5.06718C5.00116 5.02894 4.98768 4.99194 4.96318 4.96259C4.93867 4.93323 4.90468 4.91335 4.86708 4.90639L3.83509 4.74561H3.81277C3.77627 4.74596 3.74093 4.75848 3.71234 4.78119C3.68375 4.80389 3.66355 4.83548 3.65494 4.87095C3.63722 4.93658 3.62705 4.98613 3.5962 5.14364C3.53714 5.44749 3.48267 5.7438 3.42196 6.17596C3.35832 6.64533 3.31955 7.11775 3.3058 7.59122C3.28316 7.92104 3.28316 8.25203 3.3058 8.58186C3.33008 9.4569 3.48037 10.1563 3.75666 10.68C4.03295 11.2037 4.50088 11.5802 5.16043 11.8094C5.81999 12.0393 6.73878 12.1519 7.91679 12.1471H8.06511C9.24443 12.1519 10.1632 12.0393 10.8215 11.8094C11.4797 11.5795 11.9476 11.203 12.2252 10.68C12.5015 10.1563 12.6519 9.4569 12.6764 8.58186C12.6987 8.25202 12.6987 7.92105 12.6764 7.59122C12.6626 7.11774 12.6237 6.64533 12.5599 6.17596C12.4996 5.74938 12.4448 5.45405 12.386 5.14364C12.3532 4.98613 12.3447 4.93724 12.327 4.87095C12.3187 4.83531 12.2986 4.80353 12.2699 4.78077C12.2412 4.75801 12.2057 4.74562 12.1691 4.74561H12.1425L11.1106 4.90639C11.0725 4.91271 11.038 4.93236 11.0132 4.96183C10.9883 4.9913 10.9748 5.02864 10.975 5.06718C10.9744 5.07548 10.9744 5.08382 10.975 5.09212L11.0295 5.3753C11.0816 5.661 11.1342 6.02315 11.1873 6.46176C11.2401 6.91305 11.2681 7.36689 11.2713 7.82124C11.2801 8.68927 11.1926 9.33209 11.0088 9.7497C10.9182 9.9555 10.7797 10.1367 10.605 10.2782C10.4302 10.4198 10.2242 10.5176 10.0041 10.5635C9.39705 10.692 8.77689 10.748 8.15666 10.7302L7.82622 10.7292Z" fill="white"/>
<path d="M9.59997 5.06665C9.74724 5.06665 9.86663 5.18604 9.86663 5.33332V5.68289C9.86663 5.83017 9.74724 5.94956 9.59997 5.94956H8.54481V9.59998C8.54481 9.74726 8.42542 9.86665 8.27815 9.86665H7.72179C7.57451 9.86665 7.45512 9.74726 7.45512 9.59998V5.94956H6.39997C6.25269 5.94956 6.1333 5.83017 6.1333 5.68289V5.33332C6.1333 5.18604 6.25269 5.06665 6.39997 5.06665H9.59997Z" fill="white"/>
</g>
<defs>
<clipPath id="clip0_22_44">
<rect width="16" height="16" fill="white"/>
</clipPath>
</defs>
</svg>
