<svg width="1920" height="1080" viewBox="0 0 1920 1080" fill="none" xmlns="http://www.w3.org/2000/svg">
<rect width="1920" height="1080" fill="white"/>
<path d="M1040.92 412.02V449.54H983.52V616H936.2V449.54H878.8V412.02H1040.92Z" fill="white"/>
<rect x="600" y="180" width="720" height="720" rx="168.75" fill="#52A1B9"/>
<path d="M952.182 662.808C924.254 663.625 896.327 661.121 868.99 655.351C859.048 653.326 849.736 648.951 841.829 642.594C833.923 636.236 827.652 628.08 823.539 618.805C815.398 600.032 811.46 571.081 811.726 531.95C811.875 511.503 813.157 491.079 815.565 470.774C817.908 450.997 820.251 434.7 822.594 421.883L825.06 409.14C825.09 408.766 825.09 408.391 825.06 408.018C825.054 406.297 824.448 404.632 823.345 403.311C822.242 401.99 820.713 401.095 819.021 400.782L772.581 393.547H771.577C769.934 393.563 768.344 394.126 767.057 395.148C765.771 396.17 764.862 397.591 764.474 399.187C763.677 402.141 763.219 404.37 761.831 411.458C759.173 425.132 756.722 438.466 753.99 457.913C751.127 479.034 749.382 500.293 748.763 521.599C747.744 536.441 747.744 551.336 748.763 566.178C749.856 605.555 756.619 637.026 769.052 660.593C781.485 684.16 802.542 701.102 832.222 711.419C861.902 721.765 903.247 726.83 956.258 726.613H962.932C1016 726.83 1057.35 721.765 1086.97 711.419C1116.59 701.072 1137.65 684.131 1150.14 660.593C1162.57 637.026 1169.34 605.555 1170.44 566.178C1171.45 551.336 1171.45 536.442 1170.44 521.599C1169.82 500.293 1168.07 479.034 1165.2 457.913C1162.48 438.717 1160.02 425.427 1157.37 411.458C1155.9 404.37 1155.51 402.17 1154.72 399.187C1154.34 397.583 1153.44 396.153 1152.15 395.129C1150.86 394.105 1149.26 393.547 1147.61 393.547H1146.42L1099.98 400.782C1098.27 401.066 1096.71 401.951 1095.6 403.277C1094.48 404.603 1093.87 406.284 1093.88 408.018C1093.85 408.391 1093.85 408.766 1093.88 409.14L1096.33 421.883C1098.67 434.74 1101.04 451.036 1103.43 470.774C1105.81 491.082 1107.07 511.505 1107.21 531.95C1107.61 571.012 1103.67 599.939 1095.4 618.731C1091.32 627.992 1085.09 636.146 1077.23 642.515C1069.36 648.884 1060.09 653.285 1050.19 655.351C1022.87 661.136 994.962 663.654 967.052 662.853L952.182 662.808Z" fill="white"/>
<path d="M1032 408C1038.63 408 1044 413.373 1044 420V435.731C1044 442.358 1038.63 447.731 1032 447.731H984.518V612C984.518 618.627 979.146 624 972.518 624H947.482C940.854 624 935.482 618.627 935.482 612V447.731H888C881.373 447.731 876 442.358 876 435.731V420C876 413.373 881.373 408 888 408H1032Z" fill="white"/>
</svg>
