<svg width="1920" height="1080" viewBox="0 0 1920 1080" fill="none" xmlns="http://www.w3.org/2000/svg">
<g clip-path="url(#clip0_1_41)">
<rect width="1920" height="1080" fill="white"/>
<rect x="600" y="180" width="720" height="720" rx="180" fill="#52A1B9"/>
<path d="M952.183 662.811C924.255 663.627 896.328 661.124 868.991 655.354C859.049 653.328 849.737 648.954 841.83 642.596C833.924 636.238 827.653 628.082 823.54 618.807C815.399 600.035 811.461 571.083 811.727 531.953C811.876 511.505 813.158 491.082 815.566 470.776C817.909 450.999 820.252 434.702 822.595 421.885L825.061 409.142C825.091 408.769 825.091 408.393 825.061 408.02C825.055 406.299 824.449 404.634 823.346 403.313C822.243 401.992 820.714 401.098 819.022 400.784L772.582 393.549H771.578C769.935 393.565 768.345 394.129 767.058 395.15C765.772 396.172 764.863 397.593 764.475 399.19C763.678 402.143 763.22 404.373 761.832 411.46C759.174 425.134 756.723 438.468 753.991 457.915C751.128 479.037 749.383 500.295 748.764 521.602C747.745 536.444 747.745 551.338 748.764 566.181C749.857 605.557 756.62 637.029 769.053 660.596C781.486 684.162 802.543 701.104 832.223 711.421C861.903 721.767 903.248 726.832 956.259 726.615H962.933C1016 726.832 1057.35 721.767 1086.97 711.421C1116.59 701.075 1137.65 684.133 1150.14 660.596C1162.57 637.029 1169.34 605.557 1170.44 566.181C1171.45 551.338 1171.45 536.444 1170.44 521.602C1169.82 500.295 1168.07 479.037 1165.2 457.915C1162.48 438.719 1160.02 425.429 1157.37 411.46C1155.9 404.373 1155.51 402.172 1154.72 399.19C1154.34 397.586 1153.44 396.155 1152.15 395.131C1150.86 394.107 1149.26 393.549 1147.61 393.549H1146.42L1099.98 400.784C1098.27 401.069 1096.71 401.953 1095.6 403.279C1094.48 404.605 1093.87 406.286 1093.88 408.02C1093.85 408.393 1093.85 408.769 1093.88 409.142L1096.33 421.885C1098.67 434.742 1101.04 451.039 1103.43 470.776C1105.81 491.084 1107.07 511.507 1107.21 531.953C1107.61 571.014 1103.67 599.941 1095.4 618.734C1091.32 627.994 1085.09 636.148 1077.23 642.517C1069.36 648.886 1060.09 653.287 1050.19 655.354C1022.87 661.138 994.963 663.656 967.053 662.855L952.183 662.811Z" fill="white"/>
<path fill-rule="evenodd" clip-rule="evenodd" d="M1042 560.693C1042 593.253 1016.78 613 974.928 613H903.684C901.646 613 899.692 612.22 898.251 610.833C896.81 609.445 896 607.563 896 605.6V435.4C896 433.437 896.81 431.555 898.251 430.167C899.692 428.78 901.646 428 903.684 428H974.521C1009.42 428 1032.32 446.204 1032.32 474.154C1032.32 493.771 1016.91 511.335 997.286 514.41V515.435C1024.01 518.258 1042 536.077 1042 560.693ZM967.16 451.458H926.537V506.714H960.751C987.2 506.714 1001.78 496.457 1001.78 478.124C1001.78 460.945 989.244 451.458 967.16 451.458ZM926.537 528.64V589.535H968.654C996.191 589.535 1010.78 578.893 1010.78 558.895C1010.78 538.893 995.783 528.636 966.883 528.636L926.537 528.64Z" fill="white"/>
</g>
<defs>
<clipPath id="clip0_1_41">
<rect width="1920" height="1080" fill="white"/>
</clipPath>
</defs>
</svg>
