<svg width="215" height="72" viewBox="0 0 215 72" fill="none" xmlns="http://www.w3.org/2000/svg">
<rect x="6" y="6" width="60" height="60" rx="14.0625" fill="#52A1B9"/>
<path d="M35.3486 46.2341C33.0212 46.3021 30.694 46.0935 28.4159 45.6127C27.5874 45.4439 26.8114 45.0794 26.1525 44.5496C25.4936 44.0198 24.971 43.3401 24.6283 42.5672C23.9499 41.0028 23.6218 38.5902 23.6439 35.3293C23.6563 33.6253 23.7631 31.9234 23.9639 30.2313C24.1591 28.5832 24.3543 27.2251 24.5496 26.157L24.7551 25.0951C24.7575 25.064 24.7575 25.0327 24.7551 25.0016C24.7546 24.8582 24.704 24.7194 24.6122 24.6093C24.5203 24.4992 24.3928 24.4247 24.2518 24.3986L20.3818 23.7957H20.2981C20.1613 23.797 20.0287 23.8439 19.9215 23.9291C19.8143 24.0142 19.7386 24.1327 19.7063 24.2657C19.6398 24.5118 19.6017 24.6976 19.486 25.2883C19.2645 26.4277 19.0602 27.5389 18.8326 29.1595C18.594 30.9196 18.4485 32.6912 18.397 34.4667C18.3121 35.7035 18.3121 36.9448 18.397 38.1816C18.4881 41.463 19.0516 44.0856 20.0877 46.0495C21.1238 48.0134 22.8785 49.4253 25.3519 50.285C27.8252 51.1472 31.2707 51.5692 35.6882 51.5512H36.2444C40.6669 51.5692 44.1123 51.1472 46.5807 50.285C49.0491 49.4228 50.8039 48.011 51.8449 46.0495C52.881 44.0856 53.445 41.463 53.5368 38.1816C53.6205 36.9447 53.6205 35.7036 53.5368 34.4667C53.4849 32.6912 53.3391 30.9196 53.1 29.1595C52.8736 27.5598 52.6681 26.4523 52.4478 25.2883C52.3248 24.6976 52.2928 24.5143 52.2263 24.2657C52.1952 24.132 52.1198 24.0129 52.0123 23.9275C51.9049 23.8422 51.7717 23.7957 51.6345 23.7957H51.5348L47.6648 24.3986C47.5223 24.4223 47.3928 24.496 47.2997 24.6065C47.2065 24.717 47.1558 24.8571 47.1566 25.0016C47.1542 25.0327 47.1542 25.064 47.1566 25.0951L47.3609 26.157C47.5561 27.2284 47.7534 28.5865 47.9528 30.2313C48.1506 31.9236 48.2558 33.6255 48.2678 35.3293C48.3006 38.5844 47.9724 40.995 47.2834 42.561C46.9434 43.3328 46.4242 44.0122 45.7689 44.543C45.1136 45.0738 44.341 45.4405 43.5155 45.6127C41.2392 46.0947 38.9136 46.3046 36.5877 46.2378L35.3486 46.2341Z" fill="white"/>
<path d="M42 25C42.5523 25 43 25.4477 43 26V27.3109C43 27.8632 42.5523 28.3109 42 28.3109H38.0432V42C38.0432 42.5523 37.5955 43 37.0432 43H34.9568C34.4045 43 33.9568 42.5523 33.9568 42V28.3109H30C29.4477 28.3109 29 27.8632 29 27.3109V26C29 25.4477 29.4477 25 30 25H42Z" fill="white"/>
<path d="M85.1909 29.8554C85.6399 29.8554 86.0394 29.7828 86.3893 29.6375C86.7459 29.4857 87.0463 29.271 87.2907 28.9937C87.535 28.7164 87.7199 28.3796 87.8453 27.9834C87.9774 27.5806 88.0434 27.125 88.0434 26.6166V18.0688H91.3912V26.6166C91.3912 27.5014 91.246 28.3136 90.9554 29.0531C90.6715 29.7927 90.2621 30.4299 89.7272 30.9648C89.1924 31.4996 88.542 31.9156 87.776 32.2128C87.01 32.5099 86.1483 32.6585 85.1909 32.6585C84.2268 32.6585 83.3618 32.5099 82.5958 32.2128C81.8298 31.9156 81.1794 31.4996 80.6446 30.9648C80.1097 30.4299 79.7003 29.7927 79.4164 29.0531C79.1324 28.3136 78.9905 27.5014 78.9905 26.6166V18.0688H82.3383V26.6067C82.3383 27.1151 82.401 27.5707 82.5265 27.9735C82.6585 28.3697 82.8467 28.7098 83.091 28.9937C83.3354 29.271 83.6325 29.4857 83.9825 29.6375C84.339 29.7828 84.7418 29.8554 85.1909 29.8554ZM93.5621 32.5V22.2288H95.4638C95.6553 22.2288 95.8138 22.2717 95.9392 22.3575C96.0713 22.4434 96.1637 22.5721 96.2166 22.7438L96.3849 23.2985C96.5566 23.1202 96.7349 22.9584 96.9198 22.8131C97.1047 22.6613 97.3028 22.5325 97.5141 22.4269C97.732 22.3146 97.9631 22.2288 98.2074 22.1693C98.4583 22.1033 98.7324 22.0703 99.0295 22.0703C99.6502 22.0703 100.162 22.2321 100.565 22.5556C100.974 22.8726 101.284 23.2985 101.496 23.8333C101.667 23.5164 101.875 23.2457 102.12 23.0211C102.371 22.7966 102.638 22.615 102.922 22.4764C103.213 22.3377 103.516 22.2354 103.833 22.1693C104.157 22.1033 104.477 22.0703 104.794 22.0703C105.382 22.0703 105.903 22.1594 106.359 22.3377C106.815 22.5094 107.194 22.7636 107.498 23.1004C107.808 23.4305 108.043 23.8399 108.201 24.3286C108.36 24.8106 108.439 25.3587 108.439 25.9728V32.5H105.369V25.9728C105.369 24.9097 104.913 24.3781 104.002 24.3781C103.586 24.3781 103.239 24.5168 102.962 24.7941C102.691 25.0648 102.556 25.4577 102.556 25.9728V32.5H99.4851V25.9728C99.4851 25.3851 99.3696 24.9724 99.1385 24.7347C98.9074 24.497 98.5673 24.3781 98.1183 24.3781C97.8409 24.3781 97.5768 24.4408 97.3259 24.5663C97.0816 24.6917 96.8505 24.8601 96.6326 25.0714V32.5H93.5621ZM121.104 18.0688V20.7232H117.043V32.5H113.695V20.7232H109.634V18.0688H121.104ZM124.908 22.0703C125.588 22.0703 126.209 22.1759 126.77 22.3872C127.338 22.5985 127.823 22.9056 128.226 23.3084C128.635 23.7112 128.952 24.2064 129.177 24.7941C129.408 25.3752 129.523 26.0355 129.523 26.775C129.523 27.0062 129.513 27.1943 129.494 27.3396C129.474 27.4849 129.437 27.6004 129.385 27.6863C129.332 27.7721 129.259 27.8316 129.167 27.8646C129.081 27.8976 128.969 27.9141 128.83 27.9141H122.907C123.006 28.7725 123.267 29.3965 123.689 29.7861C124.112 30.1691 124.657 30.3606 125.324 30.3606C125.68 30.3606 125.987 30.3177 126.245 30.2318C126.502 30.146 126.73 30.0502 126.928 29.9446C127.133 29.8389 127.318 29.7432 127.483 29.6573C127.655 29.5715 127.833 29.5286 128.018 29.5286C128.262 29.5286 128.447 29.6177 128.572 29.796L129.464 30.8954C129.147 31.2586 128.804 31.5557 128.434 31.7869C128.071 32.0114 127.694 32.1897 127.305 32.3217C126.922 32.4472 126.535 32.533 126.146 32.5792C125.763 32.6321 125.396 32.6585 125.046 32.6585C124.327 32.6585 123.65 32.5429 123.016 32.3118C122.389 32.0741 121.837 31.7241 121.362 31.2619C120.893 30.7997 120.52 30.2252 120.243 29.5385C119.972 28.8517 119.836 28.0528 119.836 27.1415C119.836 26.4548 119.952 25.8044 120.183 25.1903C120.421 24.5762 120.758 24.038 121.193 23.5758C121.636 23.1136 122.167 22.7471 122.788 22.4764C123.415 22.2056 124.122 22.0703 124.908 22.0703ZM124.967 24.1899C124.379 24.1899 123.921 24.3583 123.59 24.695C123.26 25.0252 123.042 25.5039 122.937 26.1312H126.77C126.77 25.8869 126.737 25.6492 126.671 25.4181C126.611 25.187 126.509 24.9823 126.364 24.804C126.225 24.6191 126.04 24.4705 125.809 24.3583C125.578 24.246 125.297 24.1899 124.967 24.1899ZM131.285 32.5V22.2288H133.187C133.379 22.2288 133.537 22.2717 133.662 22.3575C133.795 22.4434 133.887 22.5721 133.94 22.7438L134.108 23.2985C134.28 23.1202 134.458 22.9584 134.643 22.8131C134.828 22.6613 135.026 22.5325 135.237 22.4269C135.455 22.3146 135.686 22.2288 135.931 22.1693C136.182 22.1033 136.456 22.0703 136.753 22.0703C137.373 22.0703 137.885 22.2321 138.288 22.5556C138.697 22.8726 139.008 23.2985 139.219 23.8333C139.391 23.5164 139.599 23.2457 139.843 23.0211C140.094 22.7966 140.361 22.615 140.645 22.4764C140.936 22.3377 141.24 22.2354 141.557 22.1693C141.88 22.1033 142.2 22.0703 142.517 22.0703C143.105 22.0703 143.627 22.1594 144.082 22.3377C144.538 22.5094 144.918 22.7636 145.221 23.1004C145.532 23.4305 145.766 23.8399 145.925 24.3286C146.083 24.8106 146.162 25.3587 146.162 25.9728V32.5H143.092V25.9728C143.092 24.9097 142.636 24.3781 141.725 24.3781C141.309 24.3781 140.962 24.5168 140.685 24.7941C140.414 25.0648 140.279 25.4577 140.279 25.9728V32.5H137.208V25.9728C137.208 25.3851 137.093 24.9724 136.862 24.7347C136.631 24.497 136.291 24.3781 135.841 24.3781C135.564 24.3781 135.3 24.4408 135.049 24.5663C134.805 24.6917 134.574 24.8601 134.356 25.0714V32.5H131.285ZM148.348 35.7587V22.2288H150.25C150.441 22.2288 150.599 22.2717 150.725 22.3575C150.857 22.4434 150.949 22.5721 151.002 22.7438L151.23 23.4966C151.428 23.2787 151.639 23.0806 151.864 22.9023C152.095 22.724 152.339 22.5721 152.597 22.4467C152.861 22.3146 153.142 22.2123 153.439 22.1396C153.743 22.067 154.073 22.0307 154.429 22.0307C154.964 22.0307 155.459 22.1495 155.915 22.3872C156.371 22.625 156.764 22.9683 157.094 23.4173C157.424 23.8663 157.681 24.4177 157.866 25.0714C158.058 25.7185 158.154 26.4548 158.154 27.2802C158.154 28.0528 158.045 28.7659 157.827 29.4196C157.615 30.0733 157.315 30.6412 156.925 31.1232C156.542 31.6053 156.08 31.9817 155.539 32.2524C155.004 32.5231 154.41 32.6585 153.756 32.6585C153.221 32.6585 152.772 32.5825 152.409 32.4307C152.046 32.2788 151.715 32.0741 151.418 31.8166V35.7587H148.348ZM153.36 24.3781C153.135 24.3781 152.93 24.4012 152.746 24.4474C152.567 24.487 152.399 24.5465 152.24 24.6257C152.088 24.705 151.947 24.8073 151.814 24.9328C151.682 25.0516 151.55 25.1903 151.418 25.3488V29.7069C151.649 29.9644 151.9 30.146 152.171 30.2516C152.442 30.3507 152.726 30.4002 153.023 30.4002C153.307 30.4002 153.568 30.3441 153.805 30.2318C154.043 30.1196 154.248 29.9413 154.419 29.697C154.598 29.446 154.736 29.1225 154.835 28.7263C154.934 28.3301 154.984 27.8481 154.984 27.2802C154.984 26.7387 154.944 26.2831 154.865 25.9133C154.786 25.5436 154.674 25.2464 154.528 25.0219C154.39 24.7908 154.221 24.6257 154.023 24.5267C153.825 24.4276 153.604 24.3781 153.36 24.3781ZM162.97 17.6726V32.5H159.899V17.6726H162.97ZM172.541 32.5C172.25 32.5 172.029 32.4604 171.877 32.3811C171.732 32.3019 171.61 32.1368 171.511 31.8859L171.293 31.3213C171.035 31.5392 170.788 31.7307 170.55 31.8958C170.312 32.0609 170.065 32.2029 169.807 32.3217C169.556 32.434 169.285 32.5165 168.995 32.5693C168.711 32.6288 168.394 32.6585 168.044 32.6585C167.575 32.6585 167.149 32.599 166.766 32.4802C166.383 32.3547 166.056 32.1731 165.786 31.9354C165.522 31.6977 165.317 31.4039 165.172 31.0539C165.026 30.6973 164.954 30.2879 164.954 29.8257C164.954 29.4625 165.046 29.0895 165.231 28.7065C165.416 28.3235 165.736 27.9768 166.192 27.6665C166.647 27.3495 167.262 27.0854 168.034 26.8741C168.807 26.6628 169.781 26.5439 170.956 26.5175V26.0817C170.956 25.4808 170.831 25.0483 170.58 24.7842C170.335 24.5135 169.985 24.3781 169.53 24.3781C169.167 24.3781 168.869 24.4177 168.638 24.497C168.407 24.5762 168.199 24.6653 168.014 24.7644C167.836 24.8634 167.661 24.9526 167.489 25.0318C167.318 25.111 167.113 25.1507 166.875 25.1507C166.664 25.1507 166.482 25.1011 166.331 25.0021C166.185 24.8964 166.07 24.7677 165.984 24.6158L165.429 23.655C166.05 23.107 166.737 22.7009 167.489 22.4368C168.249 22.166 169.061 22.0307 169.926 22.0307C170.547 22.0307 171.105 22.133 171.6 22.3377C172.102 22.5358 172.524 22.8164 172.868 23.1796C173.218 23.5362 173.485 23.9621 173.67 24.4573C173.855 24.9526 173.947 25.494 173.947 26.0817V32.5H172.541ZM169.015 30.628C169.411 30.628 169.758 30.5587 170.055 30.42C170.352 30.2813 170.652 30.0568 170.956 29.7465V28.3202C170.342 28.3466 169.837 28.3994 169.441 28.4787C169.044 28.5579 168.731 28.657 168.5 28.7758C168.269 28.8947 168.107 29.03 168.014 29.1819C167.928 29.3338 167.886 29.4989 167.886 29.6771C167.886 30.0271 167.981 30.2747 168.173 30.42C168.364 30.5587 168.645 30.628 169.015 30.628ZM179.733 32.6585C179.244 32.6585 178.812 32.5891 178.435 32.4505C178.066 32.3052 177.752 32.1038 177.494 31.8463C177.243 31.5822 177.052 31.2652 176.92 30.8954C176.788 30.5257 176.722 30.113 176.722 29.6573V24.3484H175.85C175.692 24.3484 175.556 24.2989 175.444 24.1998C175.332 24.0942 175.276 23.9423 175.276 23.7442V22.5457L176.91 22.2288L177.514 19.7229C177.593 19.4059 177.818 19.2474 178.188 19.2474H179.792V22.2486H182.288V24.3484H179.792V29.4493C179.792 29.687 179.848 29.8851 179.961 30.0436C180.08 30.1955 180.248 30.2714 180.466 30.2714C180.578 30.2714 180.671 30.2615 180.743 30.2417C180.822 30.2153 180.888 30.1889 180.941 30.1625C181.001 30.1295 181.054 30.103 181.1 30.0832C181.153 30.0568 181.212 30.0436 181.278 30.0436C181.37 30.0436 181.443 30.0667 181.496 30.113C181.555 30.1526 181.615 30.2186 181.674 30.311L182.605 31.767C182.209 32.0642 181.763 32.2887 181.268 32.4406C180.773 32.5858 180.261 32.6585 179.733 32.6585ZM188.457 22.0703C189.137 22.0703 189.758 22.1759 190.319 22.3872C190.887 22.5985 191.372 22.9056 191.775 23.3084C192.184 23.7112 192.501 24.2064 192.726 24.7941C192.957 25.3752 193.072 26.0355 193.072 26.775C193.072 27.0062 193.063 27.1943 193.043 27.3396C193.023 27.4849 192.987 27.6004 192.934 27.6863C192.881 27.7721 192.808 27.8316 192.716 27.8646C192.63 27.8976 192.518 27.9141 192.379 27.9141H186.456C186.555 28.7725 186.816 29.3965 187.239 29.7861C187.661 30.1691 188.206 30.3606 188.873 30.3606C189.229 30.3606 189.536 30.3177 189.794 30.2318C190.051 30.146 190.279 30.0502 190.477 29.9446C190.682 29.8389 190.867 29.7432 191.032 29.6573C191.204 29.5715 191.382 29.5286 191.567 29.5286C191.811 29.5286 191.996 29.6177 192.122 29.796L193.013 30.8954C192.696 31.2586 192.353 31.5557 191.983 31.7869C191.62 32.0114 191.243 32.1897 190.854 32.3217C190.471 32.4472 190.085 32.533 189.695 32.5792C189.312 32.6321 188.945 32.6585 188.595 32.6585C187.876 32.6585 187.199 32.5429 186.565 32.3118C185.938 32.0741 185.386 31.7241 184.911 31.2619C184.442 30.7997 184.069 30.2252 183.792 29.5385C183.521 28.8517 183.386 28.0528 183.386 27.1415C183.386 26.4548 183.501 25.8044 183.732 25.1903C183.97 24.5762 184.307 24.038 184.743 23.5758C185.185 23.1136 185.717 22.7471 186.337 22.4764C186.965 22.2056 187.671 22.0703 188.457 22.0703ZM188.516 24.1899C187.929 24.1899 187.47 24.3583 187.139 24.695C186.809 25.0252 186.591 25.5039 186.486 26.1312H190.319C190.319 25.8869 190.286 25.6492 190.22 25.4181C190.16 25.187 190.058 24.9823 189.913 24.804C189.774 24.6191 189.589 24.4705 189.358 24.3583C189.127 24.246 188.846 24.1899 188.516 24.1899ZM201.114 24.4771C201.035 24.6026 200.949 24.6917 200.857 24.7446C200.771 24.7974 200.658 24.8238 200.52 24.8238C200.374 24.8238 200.229 24.7941 200.084 24.7347C199.939 24.6686 199.78 24.5993 199.609 24.5267C199.443 24.454 199.255 24.388 199.044 24.3286C198.833 24.2625 198.592 24.2295 198.321 24.2295C197.931 24.2295 197.631 24.3055 197.42 24.4573C197.215 24.6026 197.113 24.8073 197.113 25.0714C197.113 25.2629 197.179 25.4214 197.311 25.5469C197.449 25.6723 197.631 25.7846 197.855 25.8836C198.08 25.9761 198.334 26.0652 198.618 26.151C198.902 26.2369 199.193 26.3326 199.49 26.4383C199.787 26.5439 200.077 26.6694 200.361 26.8147C200.645 26.9533 200.899 27.1283 201.124 27.3396C201.348 27.5443 201.527 27.7952 201.659 28.0924C201.797 28.3895 201.867 28.7461 201.867 29.1621C201.867 29.6705 201.774 30.1394 201.589 30.5686C201.405 30.9978 201.127 31.3676 200.757 31.6779C200.394 31.9883 199.942 32.2293 199.401 32.401C198.866 32.5726 198.248 32.6585 197.548 32.6585C197.198 32.6585 196.848 32.6255 196.498 32.5594C196.148 32.4934 195.808 32.4043 195.478 32.292C195.155 32.1797 194.854 32.0477 194.577 31.8958C194.3 31.7373 194.062 31.569 193.864 31.3907L194.577 30.2615C194.663 30.1295 194.765 30.0271 194.884 29.9545C195.003 29.8752 195.158 29.8356 195.349 29.8356C195.528 29.8356 195.686 29.8752 195.825 29.9545C195.97 30.0337 196.125 30.1196 196.29 30.212C196.455 30.3044 196.647 30.3903 196.865 30.4695C197.089 30.5488 197.37 30.5884 197.707 30.5884C197.945 30.5884 198.146 30.5653 198.311 30.519C198.476 30.4662 198.608 30.3969 198.707 30.311C198.806 30.2252 198.879 30.1295 198.925 30.0238C198.971 29.9182 198.994 29.8092 198.994 29.697C198.994 29.4923 198.925 29.3239 198.786 29.1918C198.648 29.0597 198.466 28.9475 198.242 28.855C198.017 28.756 197.76 28.6669 197.469 28.5876C197.185 28.5018 196.895 28.406 196.597 28.3004C196.3 28.1947 196.006 28.0693 195.716 27.924C195.432 27.7721 195.178 27.5839 194.953 27.3594C194.729 27.1283 194.547 26.8477 194.409 26.5175C194.27 26.1874 194.201 25.7879 194.201 25.319C194.201 24.8832 194.283 24.4705 194.448 24.081C194.62 23.6848 194.874 23.3381 195.211 23.041C195.548 22.7438 195.97 22.5094 196.479 22.3377C196.987 22.1594 197.581 22.0703 198.261 22.0703C198.631 22.0703 198.988 22.1033 199.331 22.1693C199.681 22.2354 200.008 22.3278 200.312 22.4467C200.615 22.5655 200.893 22.7075 201.144 22.8726C201.395 23.031 201.616 23.206 201.807 23.3975L201.114 24.4771Z" fill="#52A1B9"/>
<path d="M85.3016 53.8147C85.7576 53.8147 86.1632 53.7409 86.5186 53.5934C86.8806 53.4392 87.1857 53.2213 87.4338 52.9397C87.6819 52.6581 87.8696 52.3161 87.997 51.9138C88.1311 51.5048 88.1982 51.0422 88.1982 50.5259V41.8464H91.5975V50.5259C91.5975 51.4244 91.45 52.2491 91.155 53C90.8667 53.751 90.451 54.398 89.9079 54.9411C89.3648 55.4842 88.7044 55.9066 87.9266 56.2083C87.1488 56.5101 86.2739 56.6609 85.3016 56.6609C84.3227 56.6609 83.4444 56.5101 82.6666 56.2083C81.8888 55.9066 81.2284 55.4842 80.6853 54.9411C80.1422 54.398 79.7265 53.751 79.4382 53C79.1499 52.2491 79.0057 51.4244 79.0057 50.5259V41.8464H82.4051V50.5159C82.4051 51.0322 82.4688 51.4948 82.5962 51.9038C82.7303 52.3061 82.9214 52.6514 83.1695 52.9397C83.4176 53.2213 83.7193 53.4392 84.0746 53.5934C84.4367 53.7409 84.8457 53.8147 85.3016 53.8147ZM93.8018 56.5V46.0705H95.7328C95.9273 46.0705 96.0882 46.1141 96.2156 46.2013C96.3497 46.2884 96.4436 46.4192 96.4972 46.5935L96.6682 47.1567C96.8425 46.9757 97.0235 46.8114 97.2113 46.6639C97.399 46.5097 97.6002 46.3789 97.8147 46.2717C98.036 46.1577 98.2707 46.0705 98.5187 46.0102C98.7735 45.9431 99.0518 45.9096 99.3535 45.9096C99.9838 45.9096 100.503 46.0739 100.912 46.4024C101.328 46.7242 101.643 47.1567 101.858 47.6998C102.032 47.378 102.243 47.1031 102.491 46.8751C102.746 46.6471 103.018 46.4628 103.306 46.322C103.601 46.1812 103.909 46.0772 104.231 46.0102C104.56 45.9431 104.885 45.9096 105.207 45.9096C105.804 45.9096 106.333 46.0001 106.796 46.1812C107.259 46.3555 107.644 46.6136 107.953 46.9556C108.268 47.2908 108.506 47.7065 108.667 48.2027C108.828 48.6921 108.908 49.2486 108.908 49.8722V56.5H105.79V49.8722C105.79 48.7927 105.328 48.253 104.402 48.253C103.98 48.253 103.628 48.3938 103.346 48.6754C103.071 48.9503 102.934 49.3492 102.934 49.8722V56.5H99.8161V49.8722C99.8161 49.2755 99.6988 48.8564 99.4641 48.615C99.2295 48.3737 98.8842 48.253 98.4282 48.253C98.1466 48.253 97.8784 48.3167 97.6236 48.4441C97.3755 48.5715 97.1409 48.7424 96.9196 48.957V56.5H93.8018ZM111.127 56.5V41.8464H116.518C117.53 41.8464 118.392 41.9403 119.103 42.128C119.813 42.3158 120.393 42.5806 120.843 42.9226C121.292 43.2645 121.617 43.6802 121.818 44.1697C122.026 44.6591 122.13 45.2056 122.13 45.809C122.13 46.1376 122.083 46.4561 121.989 46.7645C121.895 47.0662 121.748 47.3512 121.547 47.6194C121.345 47.8876 121.087 48.1323 120.772 48.3535C120.457 48.5681 120.078 48.7558 119.636 48.9168C120.601 49.1514 121.315 49.5336 121.778 50.0633C122.241 50.5863 122.472 51.2601 122.472 52.0848C122.472 52.7084 122.351 53.2884 122.11 53.8247C121.868 54.3611 121.513 54.8305 121.044 55.2328C120.581 55.6284 120.008 55.9401 119.324 56.1681C118.64 56.3894 117.859 56.5 116.981 56.5H111.127ZM114.527 50.2846V53.9354H116.92C117.369 53.9354 117.735 53.8784 118.016 53.7644C118.305 53.6504 118.529 53.5029 118.69 53.3219C118.851 53.1408 118.962 52.9363 119.022 52.7084C119.083 52.4804 119.113 52.2491 119.113 52.0144C119.113 51.7462 119.076 51.5048 119.002 51.2903C118.935 51.0757 118.814 50.8947 118.64 50.7472C118.472 50.5997 118.248 50.4857 117.966 50.4052C117.685 50.3248 117.329 50.2846 116.9 50.2846H114.527ZM114.527 48.0116H116.297C116.672 48.0116 117.011 47.9848 117.312 47.9311C117.614 47.8775 117.869 47.7836 118.077 47.6495C118.291 47.5154 118.452 47.331 118.56 47.0964C118.674 46.8617 118.731 46.5667 118.731 46.2113C118.731 45.8627 118.687 45.5744 118.6 45.3464C118.513 45.1117 118.379 44.924 118.198 44.7832C118.016 44.6424 117.785 44.5418 117.504 44.4815C117.229 44.4211 116.9 44.3909 116.518 44.3909H114.527V48.0116ZM128.974 45.9096C129.765 45.9096 130.486 46.0336 131.136 46.2817C131.787 46.5298 132.343 46.8852 132.806 47.3478C133.275 47.8104 133.637 48.3737 133.892 49.0374C134.154 49.6945 134.284 50.4354 134.284 51.2601C134.284 52.0915 134.154 52.8425 133.892 53.513C133.637 54.1768 133.275 54.7433 132.806 55.2127C132.343 55.6753 131.787 56.034 131.136 56.2888C130.486 56.5369 129.765 56.6609 128.974 56.6609C128.176 56.6609 127.449 56.5369 126.792 56.2888C126.141 56.034 125.578 55.6753 125.102 55.2127C124.633 54.7433 124.267 54.1768 124.006 53.513C123.751 52.8425 123.623 52.0915 123.623 51.2601C123.623 50.4354 123.751 49.6945 124.006 49.0374C124.267 48.3737 124.633 47.8104 125.102 47.3478C125.578 46.8852 126.141 46.5298 126.792 46.2817C127.449 46.0336 128.176 45.9096 128.974 45.9096ZM128.974 54.3477C129.691 54.3477 130.218 54.0963 130.553 53.5934C130.895 53.0839 131.066 52.3128 131.066 51.2802C131.066 50.2477 130.895 49.48 130.553 48.9771C130.218 48.4742 129.691 48.2228 128.974 48.2228C128.236 48.2228 127.697 48.4742 127.355 48.9771C127.013 49.48 126.842 50.2477 126.842 51.2802C126.842 52.3128 127.013 53.0839 127.355 53.5934C127.697 54.0963 128.236 54.3477 128.974 54.3477ZM140.642 45.9096C141.433 45.9096 142.154 46.0336 142.804 46.2817C143.455 46.5298 144.011 46.8852 144.474 47.3478C144.943 47.8104 145.305 48.3737 145.56 49.0374C145.822 49.6945 145.952 50.4354 145.952 51.2601C145.952 52.0915 145.822 52.8425 145.56 53.513C145.305 54.1768 144.943 54.7433 144.474 55.2127C144.011 55.6753 143.455 56.034 142.804 56.2888C142.154 56.5369 141.433 56.6609 140.642 56.6609C139.844 56.6609 139.117 56.5369 138.46 56.2888C137.809 56.034 137.246 55.6753 136.77 55.2127C136.301 54.7433 135.935 54.1768 135.674 53.513C135.419 52.8425 135.292 52.0915 135.292 51.2601C135.292 50.4354 135.419 49.6945 135.674 49.0374C135.935 48.3737 136.301 47.8104 136.77 47.3478C137.246 46.8852 137.809 46.5298 138.46 46.2817C139.117 46.0336 139.844 45.9096 140.642 45.9096ZM140.642 54.3477C141.36 54.3477 141.886 54.0963 142.221 53.5934C142.563 53.0839 142.734 52.3128 142.734 51.2802C142.734 50.2477 142.563 49.48 142.221 48.9771C141.886 48.4742 141.36 48.2228 140.642 48.2228C139.905 48.2228 139.365 48.4742 139.023 48.9771C138.681 49.48 138.51 50.2477 138.51 51.2802C138.51 52.3128 138.681 53.0839 139.023 53.5934C139.365 54.0963 139.905 54.3477 140.642 54.3477ZM151.325 56.6609C150.828 56.6609 150.389 56.5905 150.007 56.4497C149.632 56.3022 149.313 56.0977 149.052 55.8362C148.797 55.568 148.602 55.2462 148.468 54.8707C148.334 54.4952 148.267 54.0762 148.267 53.6135V48.2228H147.382C147.221 48.2228 147.084 48.1725 146.97 48.0719C146.856 47.9647 146.799 47.8104 146.799 47.6093V46.3924L148.458 46.0705L149.072 43.526C149.152 43.2042 149.38 43.0433 149.756 43.0433H151.385V46.0906H153.919V48.2228H151.385V53.4023C151.385 53.6437 151.442 53.8449 151.556 54.0058C151.677 54.16 151.848 54.2371 152.069 54.2371C152.183 54.2371 152.277 54.227 152.35 54.2069C152.431 54.1801 152.498 54.1533 152.552 54.1265C152.612 54.0929 152.666 54.0661 152.712 54.046C152.766 54.0192 152.826 54.0058 152.894 54.0058C152.987 54.0058 153.061 54.0292 153.115 54.0762C153.175 54.1164 153.235 54.1835 153.296 54.2773L154.241 55.7558C153.839 56.0575 153.386 56.2854 152.883 56.4397C152.381 56.5872 151.861 56.6609 151.325 56.6609ZM162.094 48.3535C162.013 48.4809 161.926 48.5715 161.832 48.6251C161.745 48.6787 161.631 48.7055 161.49 48.7055C161.343 48.7055 161.195 48.6754 161.048 48.615C160.9 48.548 160.739 48.4776 160.565 48.4038C160.397 48.3301 160.206 48.263 159.992 48.2027C159.777 48.1356 159.533 48.1021 159.258 48.1021C158.862 48.1021 158.557 48.1792 158.342 48.3334C158.135 48.4809 158.031 48.6888 158.031 48.957C158.031 49.1514 158.098 49.3123 158.232 49.4397C158.373 49.5671 158.557 49.6811 158.785 49.7817C159.013 49.8756 159.271 49.9661 159.559 50.0532C159.848 50.1404 160.143 50.2376 160.444 50.3449C160.746 50.4522 161.041 50.5796 161.329 50.7271C161.618 50.8679 161.876 51.0456 162.104 51.2601C162.332 51.468 162.513 51.7228 162.647 52.0245C162.788 52.3262 162.858 52.6883 162.858 53.1107C162.858 53.6269 162.764 54.103 162.577 54.5388C162.389 54.9746 162.107 55.3501 161.732 55.6652C161.363 55.9804 160.904 56.2251 160.354 56.3994C159.811 56.5738 159.184 56.6609 158.473 56.6609C158.118 56.6609 157.762 56.6274 157.407 56.5603C157.052 56.4933 156.706 56.4028 156.371 56.2888C156.043 56.1748 155.738 56.0407 155.456 55.8865C155.174 55.7256 154.933 55.5546 154.732 55.3736L155.456 54.227C155.543 54.0929 155.647 53.989 155.768 53.9153C155.888 53.8348 156.046 53.7946 156.24 53.7946C156.421 53.7946 156.582 53.8348 156.723 53.9153C156.871 53.9957 157.028 54.0829 157.196 54.1768C157.363 54.2706 157.558 54.3578 157.779 54.4382C158.007 54.5187 158.292 54.5589 158.634 54.5589C158.875 54.5589 159.08 54.5355 159.248 54.4885C159.415 54.4349 159.549 54.3645 159.65 54.2773C159.75 54.1902 159.824 54.0929 159.871 53.9857C159.918 53.8784 159.942 53.7678 159.942 53.6538C159.942 53.4459 159.871 53.2749 159.73 53.1408C159.59 53.0067 159.405 52.8928 159.177 52.7989C158.949 52.6983 158.688 52.6078 158.393 52.5273C158.104 52.4402 157.809 52.343 157.508 52.2357C157.206 52.1284 156.908 52.001 156.613 51.8535C156.324 51.6993 156.066 51.5082 155.838 51.2802C155.61 51.0456 155.426 50.7606 155.285 50.4254C155.144 50.0901 155.074 49.6845 155.074 49.2084C155.074 48.7659 155.158 48.3468 155.325 47.9512C155.5 47.549 155.758 47.1969 156.1 46.8952C156.442 46.5935 156.871 46.3555 157.387 46.1812C157.903 46.0001 158.507 45.9096 159.197 45.9096C159.573 45.9096 159.935 45.9431 160.283 46.0102C160.639 46.0772 160.971 46.1711 161.279 46.2918C161.588 46.4125 161.869 46.5566 162.124 46.7242C162.379 46.8852 162.603 47.0628 162.798 47.2573L162.094 48.3535ZM168.237 56.6609C167.741 56.6609 167.302 56.5905 166.92 56.4497C166.544 56.3022 166.226 56.0977 165.964 55.8362C165.71 55.568 165.515 55.2462 165.381 54.8707C165.247 54.4952 165.18 54.0762 165.18 53.6135V48.2228H164.295C164.134 48.2228 163.997 48.1725 163.883 48.0719C163.769 47.9647 163.712 47.8104 163.712 47.6093V46.3924L165.371 46.0705L165.985 43.526C166.065 43.2042 166.293 43.0433 166.668 43.0433H168.298V46.0906H170.832V48.2228H168.298V53.4023C168.298 53.6437 168.355 53.8449 168.469 54.0058C168.589 54.16 168.76 54.2371 168.982 54.2371C169.096 54.2371 169.19 54.227 169.263 54.2069C169.344 54.1801 169.411 54.1533 169.464 54.1265C169.525 54.0929 169.578 54.0661 169.625 54.046C169.679 54.0192 169.739 54.0058 169.806 54.0058C169.9 54.0058 169.974 54.0292 170.028 54.0762C170.088 54.1164 170.148 54.1835 170.209 54.2773L171.154 55.7558C170.752 56.0575 170.299 56.2854 169.796 56.4397C169.293 56.5872 168.774 56.6609 168.237 56.6609ZM172.63 56.5V46.0705H174.481C174.635 46.0705 174.762 46.0839 174.863 46.1108C174.97 46.1376 175.057 46.1812 175.125 46.2415C175.198 46.2951 175.252 46.3689 175.285 46.4628C175.326 46.5566 175.359 46.6706 175.386 46.8047L175.557 47.7803C175.939 47.1902 176.368 46.7242 176.844 46.3823C177.32 46.0403 177.84 45.8694 178.403 45.8694C178.879 45.8694 179.261 45.9834 179.55 46.2113L179.147 48.5044C179.121 48.6452 179.067 48.7458 178.987 48.8061C178.906 48.8598 178.799 48.8866 178.665 48.8866C178.551 48.8866 178.417 48.8732 178.262 48.8464C178.108 48.8128 177.914 48.7961 177.679 48.7961C176.861 48.7961 176.217 49.2319 175.748 50.1035V56.5H172.63ZM187.944 56.5C187.649 56.5 187.424 56.4598 187.27 56.3793C187.123 56.2989 186.999 56.1312 186.898 55.8764L186.677 55.3032C186.415 55.5244 186.164 55.7189 185.923 55.8865C185.681 56.0541 185.43 56.1983 185.168 56.319C184.913 56.433 184.639 56.5168 184.343 56.5704C184.055 56.6307 183.733 56.6609 183.378 56.6609C182.902 56.6609 182.469 56.6006 182.081 56.4799C181.692 56.3525 181.36 56.1681 181.085 55.9267C180.817 55.6854 180.609 55.387 180.461 55.0316C180.314 54.6696 180.24 54.2539 180.24 53.7845C180.24 53.4157 180.334 53.0369 180.522 52.648C180.709 52.2591 181.035 51.9071 181.497 51.592C181.96 51.2702 182.583 51.002 183.368 50.7874C184.152 50.5729 185.141 50.4522 186.335 50.4254V49.9828C186.335 49.3727 186.207 48.9335 185.953 48.6653C185.705 48.3904 185.349 48.253 184.887 48.253C184.518 48.253 184.216 48.2932 183.981 48.3737C183.747 48.4541 183.536 48.5446 183.348 48.6452C183.167 48.7458 182.989 48.8363 182.815 48.9168C182.64 48.9972 182.433 49.0374 182.191 49.0374C181.977 49.0374 181.792 48.9872 181.638 48.8866C181.491 48.7793 181.373 48.6486 181.286 48.4943L180.723 47.5188C181.353 46.9623 182.05 46.5499 182.815 46.2817C183.586 46.0068 184.411 45.8694 185.289 45.8694C185.919 45.8694 186.486 45.9733 186.989 46.1812C187.498 46.3823 187.927 46.6673 188.276 47.036C188.631 47.3981 188.903 47.8306 189.091 48.3334C189.278 48.8363 189.372 49.3861 189.372 49.9828V56.5H187.944ZM184.364 54.5992C184.766 54.5992 185.118 54.5288 185.42 54.388C185.721 54.2472 186.026 54.0192 186.335 53.7041V52.2558C185.711 52.2826 185.198 52.3363 184.796 52.4167C184.394 52.4972 184.075 52.5977 183.841 52.7184C183.606 52.8391 183.442 52.9766 183.348 53.1308C183.261 53.285 183.217 53.4526 183.217 53.6337C183.217 53.989 183.314 54.2404 183.509 54.388C183.703 54.5288 183.988 54.5992 184.364 54.5992ZM191.586 59.8089V46.0705H193.517C193.712 46.0705 193.872 46.1141 194 46.2013C194.134 46.2884 194.228 46.4192 194.281 46.5935L194.513 47.3579C194.714 47.1366 194.928 46.9355 195.156 46.7544C195.391 46.5734 195.639 46.4192 195.901 46.2918C196.169 46.1577 196.454 46.0538 196.756 45.98C197.064 45.9063 197.399 45.8694 197.761 45.8694C198.304 45.8694 198.807 45.9901 199.27 46.2314C199.733 46.4728 200.131 46.8215 200.467 47.2774C200.802 47.7333 201.063 48.2932 201.251 48.957C201.446 49.6141 201.543 50.3617 201.543 51.1998C201.543 51.9842 201.432 52.7084 201.211 53.3722C200.996 54.0359 200.691 54.6126 200.296 55.102C199.907 55.5915 199.437 55.9737 198.888 56.2486C198.345 56.5235 197.741 56.6609 197.077 56.6609C196.534 56.6609 196.078 56.5838 195.71 56.4296C195.341 56.2754 195.006 56.0675 194.704 55.806V59.8089H191.586ZM196.675 48.253C196.447 48.253 196.239 48.2764 196.052 48.3234C195.87 48.3636 195.7 48.4239 195.539 48.5044C195.384 48.5849 195.24 48.6888 195.106 48.8162C194.972 48.9369 194.838 49.0777 194.704 49.2386V53.6638C194.939 53.9253 195.193 54.1097 195.468 54.217C195.743 54.3176 196.031 54.3678 196.333 54.3678C196.621 54.3678 196.886 54.3108 197.128 54.1969C197.369 54.0829 197.577 53.9018 197.751 53.6538C197.932 53.399 198.073 53.0704 198.174 52.6681C198.274 52.2659 198.324 51.7764 198.324 51.1998C198.324 50.65 198.284 50.1873 198.204 49.8119C198.123 49.4364 198.009 49.1347 197.862 48.9067C197.721 48.672 197.55 48.5044 197.349 48.4038C197.148 48.3033 196.923 48.253 196.675 48.253Z" fill="#D63384"/>
</svg>
