<svg width="240" height="81" viewBox="0 0 240 81" fill="none" xmlns="http://www.w3.org/2000/svg">
<rect x="4.42627" y="9.16321" width="63.6735" height="63.6735" rx="15.9184" fill="#52A1B9"/>
<path d="M35.5717 51.8608C33.1018 51.933 30.6321 51.7117 28.2145 51.2014C27.3353 51.0222 26.5118 50.6354 25.8126 50.0731C25.1134 49.5109 24.5588 48.7896 24.1951 47.9694C23.4751 46.3092 23.1269 43.7489 23.1504 40.2884C23.1636 38.4801 23.2769 36.6739 23.4899 34.8782C23.6971 33.1292 23.9043 31.688 24.1115 30.5545L24.3296 29.4276C24.3322 29.3945 24.3322 29.3613 24.3296 29.3283C24.3291 29.1761 24.2754 29.0289 24.1779 28.9121C24.0804 28.7952 23.9451 28.7161 23.7955 28.6885L19.6886 28.0486H19.5998C19.4545 28.05 19.3139 28.0998 19.2001 28.1902C19.0863 28.2805 19.0059 28.4062 18.9717 28.5474C18.9011 28.8086 18.8607 29.0058 18.7379 29.6326C18.5029 30.8418 18.2861 32.021 18.0445 33.7408C17.7912 35.6087 17.6369 37.4887 17.5822 39.373C17.4921 40.6855 17.4921 42.0027 17.5822 43.3153C17.6789 46.7976 18.2769 49.5808 19.3765 51.6649C20.476 53.7491 22.3381 55.2473 24.9629 56.1597C27.5877 57.0747 31.2441 57.5226 35.9321 57.5034H36.5223C41.2156 57.5226 44.872 57.0747 47.4915 56.1597C50.111 55.2447 51.9732 53.7465 53.078 51.6649C54.1775 49.5808 54.776 46.7976 54.8735 43.3153C54.9623 42.0027 54.9623 40.6856 54.8735 39.373C54.8184 37.4887 54.6636 35.6087 54.4099 33.7408C54.1696 32.0432 53.9516 30.8679 53.7178 29.6326C53.5872 29.0058 53.5533 28.8112 53.4828 28.5474C53.4497 28.4056 53.3697 28.2791 53.2557 28.1885C53.1416 28.0979 53.0003 28.0486 52.8546 28.0486H52.7489L48.642 28.6885C48.4907 28.7136 48.3533 28.7918 48.2545 28.9091C48.1556 29.0263 48.1018 29.175 48.1026 29.3283C48.1 29.3613 48.1 29.3945 48.1026 29.4276L48.3194 30.5545C48.5266 31.6915 48.736 33.1327 48.9475 34.8782C49.1575 36.6741 49.2691 38.4802 49.2818 40.2884C49.3167 43.7428 48.9684 46.3009 48.2371 47.9629C47.8764 48.7818 47.3254 49.5029 46.6299 50.0662C45.9345 50.6294 45.1147 51.0186 44.2386 51.2014C41.8229 51.7129 39.3549 51.9356 36.8867 51.8647L35.5717 51.8608Z" fill="white"/>
<path d="M43.419 30.2739V33.592H38.3428V48.313H34.158V33.592H29.0818V30.2739H43.419Z" fill="white"/>
<path d="M84.4148 30.4494C84.9761 30.4494 85.4755 30.3586 85.9129 30.177C86.3587 29.9872 86.7342 29.7189 87.0396 29.3723C87.345 29.0256 87.5761 28.6047 87.7329 28.1094C87.898 27.6059 87.9806 27.0364 87.9806 26.4008V15.7161H92.1653V26.4008C92.1653 27.5069 91.9837 28.5221 91.6206 29.4466C91.2656 30.371 90.7539 31.1675 90.0853 31.8361C89.4167 32.5047 88.6037 33.0247 87.6463 33.3961C86.6888 33.7675 85.6117 33.9532 84.4148 33.9532C83.2098 33.9532 82.1285 33.7675 81.171 33.3961C80.2136 33.0247 79.4006 32.5047 78.732 31.8361C78.0634 31.1675 77.5517 30.371 77.1967 29.4466C76.8418 28.5221 76.6644 27.5069 76.6644 26.4008V15.7161H80.8491V26.3885C80.8491 27.024 80.9275 27.5935 81.0844 28.097C81.2494 28.5923 81.4847 29.0173 81.7901 29.3723C82.0955 29.7189 82.4669 29.9872 82.9044 30.177C83.3501 30.3586 83.8536 30.4494 84.4148 30.4494ZM94.8789 33.7551V20.9161H97.256C97.4954 20.9161 97.6935 20.9697 97.8503 21.077C98.0154 21.1843 98.1309 21.3453 98.197 21.5599L98.4074 22.2532C98.622 22.0304 98.8449 21.8281 99.076 21.6466C99.3071 21.4567 99.5547 21.2958 99.8189 21.1637C100.091 21.0234 100.38 20.9161 100.686 20.8418C100.999 20.7593 101.342 20.718 101.713 20.718C102.489 20.718 103.129 20.9202 103.632 21.3247C104.144 21.7208 104.532 22.2532 104.796 22.9218C105.011 22.5256 105.271 22.1872 105.576 21.9066C105.89 21.6259 106.224 21.3989 106.579 21.2256C106.942 21.0523 107.322 20.9243 107.718 20.8418C108.122 20.7593 108.523 20.718 108.919 20.718C109.653 20.718 110.306 20.8294 110.875 21.0523C111.445 21.2669 111.919 21.5847 112.299 22.0056C112.687 22.4183 112.98 22.93 113.178 23.5408C113.376 24.1434 113.475 24.8285 113.475 25.5961V33.7551H109.637V25.5961C109.637 24.2672 109.067 23.6027 107.928 23.6027C107.408 23.6027 106.975 23.7761 106.628 24.1227C106.29 24.4612 106.121 24.9523 106.121 25.5961V33.7551H102.283V25.5961C102.283 24.8615 102.138 24.3456 101.849 24.0485C101.56 23.7513 101.135 23.6027 100.574 23.6027C100.227 23.6027 99.8973 23.6812 99.5836 23.838C99.2782 23.9948 98.9893 24.2053 98.717 24.4694V33.7551H94.8789ZM129.306 15.7161V19.0342H124.23V33.7551H120.045V19.0342H114.969V15.7161H129.306ZM134.061 20.718C134.911 20.718 135.687 20.85 136.389 21.1142C137.098 21.3783 137.705 21.7621 138.209 22.2656C138.72 22.7691 139.116 23.3881 139.397 24.1227C139.686 24.8491 139.83 25.6745 139.83 26.5989C139.83 26.8878 139.818 27.1231 139.793 27.3047C139.769 27.4862 139.723 27.6307 139.657 27.738C139.591 27.8453 139.5 27.9196 139.385 27.9608C139.277 28.0021 139.137 28.0227 138.964 28.0227H131.56C131.684 29.0958 132.01 29.8758 132.538 30.3627C133.066 30.8415 133.747 31.0808 134.581 31.0808C135.027 31.0808 135.41 31.0272 135.732 30.9199C136.054 30.8126 136.339 30.6929 136.587 30.5608C136.842 30.4288 137.074 30.3091 137.28 30.2018C137.495 30.0945 137.717 30.0408 137.949 30.0408C138.254 30.0408 138.485 30.1523 138.642 30.3751L139.756 31.7494C139.36 32.2034 138.931 32.5748 138.469 32.8637C138.015 33.1443 137.544 33.3672 137.057 33.5323C136.578 33.6891 136.096 33.7964 135.609 33.8542C135.13 33.9202 134.672 33.9532 134.234 33.9532C133.335 33.9532 132.489 33.8088 131.696 33.5199C130.912 33.2227 130.223 32.7853 129.629 32.2075C129.042 31.6297 128.576 30.9116 128.229 30.0532C127.891 29.1948 127.722 28.1961 127.722 27.057C127.722 26.1986 127.866 25.3856 128.155 24.618C128.452 23.8504 128.873 23.1777 129.418 22.5999C129.971 22.0221 130.636 21.564 131.411 21.2256C132.196 20.8872 133.079 20.718 134.061 20.718ZM134.135 23.3675C133.401 23.3675 132.827 23.578 132.414 23.9989C132.002 24.4116 131.729 25.01 131.597 25.7942H136.389C136.389 25.4888 136.347 25.1916 136.265 24.9027C136.19 24.6139 136.062 24.358 135.881 24.1351C135.708 23.904 135.476 23.7183 135.188 23.578C134.899 23.4377 134.548 23.3675 134.135 23.3675ZM142.033 33.7551V20.9161H144.41C144.649 20.9161 144.847 20.9697 145.004 21.077C145.169 21.1843 145.285 21.3453 145.351 21.5599L145.561 22.2532C145.776 22.0304 145.999 21.8281 146.23 21.6466C146.461 21.4567 146.709 21.2958 146.973 21.1637C147.245 21.0234 147.534 20.9161 147.84 20.8418C148.153 20.7593 148.496 20.718 148.867 20.718C149.643 20.718 150.283 20.9202 150.786 21.3247C151.298 21.7208 151.686 22.2532 151.95 22.9218C152.165 22.5256 152.425 22.1872 152.73 21.9066C153.044 21.6259 153.378 21.3989 153.733 21.2256C154.096 21.0523 154.476 20.9243 154.872 20.8418C155.276 20.7593 155.677 20.718 156.073 20.718C156.807 20.718 157.46 20.8294 158.029 21.0523C158.599 21.2669 159.073 21.5847 159.453 22.0056C159.841 22.4183 160.134 22.93 160.332 23.5408C160.53 24.1434 160.629 24.8285 160.629 25.5961V33.7551H156.791V25.5961C156.791 24.2672 156.221 23.6027 155.082 23.6027C154.562 23.6027 154.129 23.7761 153.782 24.1227C153.444 24.4612 153.275 24.9523 153.275 25.5961V33.7551H149.437V25.5961C149.437 24.8615 149.292 24.3456 149.003 24.0485C148.714 23.7513 148.289 23.6027 147.728 23.6027C147.381 23.6027 147.051 23.6812 146.738 23.838C146.432 23.9948 146.143 24.2053 145.871 24.4694V33.7551H142.033ZM163.361 37.8285V20.9161H165.738C165.978 20.9161 166.176 20.9697 166.332 21.077C166.498 21.1843 166.613 21.3453 166.679 21.5599L166.964 22.5008C167.211 22.2285 167.476 21.9808 167.756 21.758C168.045 21.5351 168.351 21.3453 168.672 21.1885C169.003 21.0234 169.353 20.8954 169.725 20.8047C170.105 20.7139 170.517 20.6685 170.963 20.6685C171.631 20.6685 172.251 20.817 172.82 21.1142C173.39 21.4113 173.881 21.8405 174.293 22.4018C174.706 22.9631 175.028 23.6523 175.259 24.4694C175.498 25.2783 175.618 26.1986 175.618 27.2304C175.618 28.1961 175.482 29.0875 175.21 29.9047C174.945 30.7218 174.57 31.4316 174.083 32.0342C173.604 32.6367 173.026 33.1072 172.35 33.4456C171.681 33.784 170.938 33.9532 170.121 33.9532C169.452 33.9532 168.891 33.8583 168.437 33.6685C167.983 33.4786 167.571 33.2227 167.199 32.9008V37.8285H163.361ZM169.626 23.6027C169.345 23.6027 169.089 23.6316 168.858 23.6894C168.635 23.7389 168.425 23.8132 168.227 23.9123C168.037 24.0113 167.859 24.1393 167.694 24.2961C167.529 24.4447 167.364 24.618 167.199 24.8161V30.2637C167.488 30.5856 167.802 30.8126 168.14 30.9447C168.478 31.0685 168.833 31.1304 169.205 31.1304C169.56 31.1304 169.886 31.0602 170.183 30.9199C170.48 30.7796 170.736 30.5567 170.951 30.2513C171.173 29.9377 171.347 29.5332 171.471 29.038C171.594 28.5427 171.656 27.9402 171.656 27.2304C171.656 26.5535 171.607 25.984 171.508 25.5218C171.409 25.0596 171.268 24.6881 171.087 24.4075C170.913 24.1186 170.703 23.9123 170.455 23.7885C170.208 23.6647 169.931 23.6027 169.626 23.6027ZM181.638 15.2208V33.7551H177.8V15.2208H181.638ZM193.602 33.7551C193.239 33.7551 192.963 33.7056 192.773 33.6066C192.591 33.5075 192.438 33.3012 192.315 32.9875L192.042 32.2818C191.72 32.5542 191.411 32.7935 191.114 32.9999C190.817 33.2062 190.507 33.3837 190.185 33.5323C189.871 33.6726 189.533 33.7758 189.17 33.8418C188.815 33.9161 188.419 33.9532 187.981 33.9532C187.395 33.9532 186.863 33.8789 186.384 33.7304C185.905 33.5735 185.497 33.3466 185.158 33.0494C184.828 32.7523 184.572 32.385 184.391 31.9475C184.209 31.5018 184.118 30.99 184.118 30.4123C184.118 29.9583 184.234 29.492 184.465 29.0132C184.696 28.5345 185.097 28.1012 185.666 27.7132C186.236 27.317 187.003 26.9869 187.969 26.7227C188.935 26.4586 190.152 26.31 191.621 26.277V25.7323C191.621 24.9812 191.464 24.4405 191.151 24.1104C190.845 23.772 190.408 23.6027 189.838 23.6027C189.384 23.6027 189.013 23.6523 188.724 23.7513C188.435 23.8504 188.175 23.9618 187.944 24.0856C187.721 24.2094 187.503 24.3208 187.288 24.4199C187.073 24.5189 186.817 24.5685 186.52 24.5685C186.256 24.5685 186.029 24.5066 185.839 24.3827C185.658 24.2507 185.513 24.0897 185.406 23.8999L184.713 22.6989C185.489 22.0139 186.347 21.5062 187.288 21.1761C188.237 20.8377 189.252 20.6685 190.334 20.6685C191.11 20.6685 191.807 20.7964 192.426 21.0523C193.053 21.2999 193.582 21.6507 194.011 22.1047C194.448 22.5504 194.783 23.0827 195.014 23.7018C195.245 24.3208 195.36 24.9977 195.36 25.7323V33.7551H193.602ZM189.195 31.4151C189.69 31.4151 190.123 31.3285 190.495 31.1551C190.866 30.9818 191.242 30.7012 191.621 30.3132V28.5304C190.854 28.5634 190.222 28.6294 189.727 28.7285C189.232 28.8275 188.84 28.9513 188.551 29.0999C188.262 29.2485 188.06 29.4177 187.944 29.6075C187.837 29.7973 187.783 30.0037 187.783 30.2266C187.783 30.664 187.903 30.9735 188.142 31.1551C188.382 31.3285 188.732 31.4151 189.195 31.4151ZM202.592 33.9532C201.982 33.9532 201.441 33.8666 200.97 33.6932C200.508 33.5116 200.116 33.2599 199.794 32.938C199.481 32.6078 199.241 32.2116 199.076 31.7494C198.911 31.2872 198.829 30.7713 198.829 30.2018V23.5656H197.739C197.541 23.5656 197.372 23.5037 197.231 23.3799C197.091 23.2478 197.021 23.058 197.021 22.8104V21.3123L199.064 20.9161L199.819 17.7837C199.918 17.3875 200.199 17.1894 200.661 17.1894H202.667V20.9408H205.787V23.5656H202.667V29.9418C202.667 30.2389 202.737 30.4866 202.877 30.6847C203.026 30.8745 203.236 30.9694 203.509 30.9694C203.649 30.9694 203.764 30.957 203.855 30.9323C203.954 30.8993 204.037 30.8662 204.103 30.8332C204.177 30.792 204.243 30.7589 204.301 30.7342C204.367 30.7012 204.441 30.6847 204.524 30.6847C204.639 30.6847 204.73 30.7135 204.796 30.7713C204.87 30.8208 204.945 30.9034 205.019 31.0189L206.183 32.8389C205.688 33.2104 205.13 33.491 204.511 33.6808C203.892 33.8624 203.253 33.9532 202.592 33.9532ZM213.497 20.718C214.347 20.718 215.123 20.85 215.825 21.1142C216.535 21.3783 217.141 21.7621 217.645 22.2656C218.157 22.7691 218.553 23.3881 218.833 24.1227C219.122 24.8491 219.267 25.6745 219.267 26.5989C219.267 26.8878 219.254 27.1231 219.23 27.3047C219.205 27.4862 219.16 27.6307 219.093 27.738C219.027 27.8453 218.937 27.9196 218.821 27.9608C218.714 28.0021 218.573 28.0227 218.4 28.0227H210.996C211.12 29.0958 211.446 29.8758 211.974 30.3627C212.503 30.8415 213.184 31.0808 214.017 31.0808C214.463 31.0808 214.847 31.0272 215.169 30.9199C215.491 30.8126 215.775 30.6929 216.023 30.5608C216.279 30.4288 216.51 30.3091 216.716 30.2018C216.931 30.0945 217.154 30.0408 217.385 30.0408C217.69 30.0408 217.921 30.1523 218.078 30.3751L219.193 31.7494C218.796 32.2034 218.367 32.5748 217.905 32.8637C217.451 33.1443 216.98 33.3672 216.493 33.5323C216.015 33.6891 215.532 33.7964 215.045 33.8542C214.566 33.9202 214.108 33.9532 213.671 33.9532C212.771 33.9532 211.925 33.8088 211.133 33.5199C210.348 33.2227 209.659 32.7853 209.065 32.2075C208.479 31.6297 208.013 30.9116 207.666 30.0532C207.327 29.1948 207.158 28.1961 207.158 27.057C207.158 26.1986 207.303 25.3856 207.592 24.618C207.889 23.8504 208.31 23.1777 208.854 22.5999C209.407 22.0221 210.072 21.564 210.848 21.2256C211.632 20.8872 212.515 20.718 213.497 20.718ZM213.572 23.3675C212.837 23.3675 212.263 23.578 211.851 23.9989C211.438 24.4116 211.166 25.01 211.033 25.7942H215.825C215.825 25.4888 215.784 25.1916 215.701 24.9027C215.627 24.6139 215.499 24.358 215.317 24.1351C215.144 23.904 214.913 23.7183 214.624 23.578C214.335 23.4377 213.984 23.3675 213.572 23.3675ZM229.319 23.7266C229.22 23.8834 229.112 23.9948 228.997 24.0608C228.89 24.1269 228.749 24.1599 228.576 24.1599C228.394 24.1599 228.213 24.1227 228.031 24.0485C227.85 23.9659 227.651 23.8793 227.437 23.7885C227.231 23.6977 226.995 23.6151 226.731 23.5408C226.467 23.4583 226.166 23.417 225.827 23.417C225.34 23.417 224.965 23.512 224.701 23.7018C224.445 23.8834 224.317 24.1393 224.317 24.4694C224.317 24.7088 224.399 24.9069 224.565 25.0637C224.738 25.2205 224.965 25.3608 225.245 25.4847C225.526 25.6002 225.844 25.7116 226.199 25.8189C226.554 25.9262 226.917 26.0459 227.288 26.178C227.66 26.31 228.023 26.4669 228.378 26.6485C228.733 26.8218 229.051 27.0405 229.331 27.3047C229.612 27.5605 229.835 27.8742 230 28.2456C230.173 28.617 230.26 29.0627 230.26 29.5827C230.26 30.2183 230.144 30.8043 229.913 31.3408C229.682 31.8773 229.335 32.3396 228.873 32.7275C228.419 33.1154 227.854 33.4167 227.177 33.6313C226.508 33.8459 225.737 33.9532 224.862 33.9532C224.424 33.9532 223.987 33.912 223.549 33.8294C223.112 33.7469 222.687 33.6354 222.274 33.4951C221.87 33.3548 221.494 33.1897 221.147 32.9999C220.801 32.8018 220.504 32.5913 220.256 32.3685L221.147 30.957C221.255 30.792 221.383 30.664 221.531 30.5732C221.68 30.4742 221.874 30.4247 222.113 30.4247C222.336 30.4247 222.534 30.4742 222.707 30.5732C222.889 30.6723 223.083 30.7796 223.289 30.8951C223.496 31.0107 223.735 31.118 224.007 31.217C224.288 31.3161 224.639 31.3656 225.06 31.3656C225.357 31.3656 225.609 31.3367 225.815 31.2789C226.021 31.2129 226.186 31.1262 226.31 31.0189C226.434 30.9116 226.525 30.792 226.583 30.6599C226.64 30.5278 226.669 30.3916 226.669 30.2513C226.669 29.9954 226.583 29.785 226.409 29.6199C226.236 29.4548 226.009 29.3145 225.728 29.1989C225.448 29.0751 225.126 28.9637 224.763 28.8647C224.408 28.7573 224.045 28.6377 223.673 28.5056C223.302 28.3735 222.934 28.2167 222.571 28.0351C222.216 27.8453 221.898 27.61 221.618 27.3294C221.337 27.0405 221.11 26.6897 220.937 26.277C220.764 25.8643 220.677 25.365 220.677 24.7789C220.677 24.2342 220.78 23.7183 220.986 23.2313C221.201 22.7361 221.519 22.3027 221.94 21.9313C222.361 21.5599 222.889 21.2669 223.525 21.0523C224.16 20.8294 224.903 20.718 225.753 20.718C226.215 20.718 226.661 20.7593 227.09 20.8418C227.528 20.9243 227.936 21.0399 228.316 21.1885C228.696 21.337 229.042 21.5145 229.356 21.7208C229.67 21.9189 229.946 22.1377 230.185 22.377L229.319 23.7266Z" fill="#52A1B9"/>
<path d="M84.4148 64.4085C84.9761 64.4085 85.4755 64.3177 85.9129 64.1361C86.3587 63.9463 86.7342 63.678 87.0396 63.3314C87.345 62.9847 87.5761 62.5638 87.7329 62.0685C87.898 61.565 87.9806 60.9955 87.9806 60.3599V49.6752H92.1653V60.3599C92.1653 61.466 91.9837 62.4812 91.6206 63.4057C91.2656 64.3301 90.7539 65.1266 90.0853 65.7952C89.4167 66.4638 88.6037 66.9838 87.6463 67.3552C86.6888 67.7266 85.6117 67.9123 84.4148 67.9123C83.2098 67.9123 82.1285 67.7266 81.171 67.3552C80.2136 66.9838 79.4006 66.4638 78.732 65.7952C78.0634 65.1266 77.5517 64.3301 77.1967 63.4057C76.8418 62.4812 76.6644 61.466 76.6644 60.3599V49.6752H80.8491V60.3476C80.8491 60.9831 80.9275 61.5526 81.0844 62.0561C81.2494 62.5514 81.4847 62.9765 81.7901 63.3314C82.0955 63.678 82.4669 63.9463 82.9044 64.1361C83.3501 64.3177 83.8536 64.4085 84.4148 64.4085ZM94.8789 67.7142V54.8752H97.256C97.4954 54.8752 97.6935 54.9288 97.8503 55.0361C98.0154 55.1434 98.1309 55.3044 98.197 55.519L98.4074 56.2123C98.622 55.9895 98.8449 55.7872 99.076 55.6057C99.3071 55.4158 99.5547 55.2549 99.8189 55.1228C100.091 54.9825 100.38 54.8752 100.686 54.8009C100.999 54.7184 101.342 54.6771 101.713 54.6771C102.489 54.6771 103.129 54.8793 103.632 55.2838C104.144 55.6799 104.532 56.2123 104.796 56.8809C105.011 56.4847 105.271 56.1463 105.576 55.8657C105.89 55.585 106.224 55.358 106.579 55.1847C106.942 55.0114 107.322 54.8834 107.718 54.8009C108.122 54.7184 108.523 54.6771 108.919 54.6771C109.653 54.6771 110.306 54.7885 110.875 55.0114C111.445 55.226 111.919 55.5438 112.299 55.9647C112.687 56.3774 112.98 56.8892 113.178 57.4999C113.376 58.1025 113.475 58.7876 113.475 59.5552V67.7142H109.637V59.5552C109.637 58.2263 109.067 57.5619 107.928 57.5619C107.408 57.5619 106.975 57.7352 106.628 58.0819C106.29 58.4203 106.121 58.9114 106.121 59.5552V67.7142H102.283V59.5552C102.283 58.8206 102.138 58.3047 101.849 58.0076C101.56 57.7104 101.135 57.5619 100.574 57.5619C100.227 57.5619 99.8973 57.6403 99.5836 57.7971C99.2782 57.9539 98.9893 58.1644 98.717 58.4285V67.7142H94.8789ZM116.207 67.7142V49.6752H122.843C124.09 49.6752 125.15 49.7907 126.025 50.0219C126.9 50.253 127.614 50.579 128.167 50.9999C128.72 51.4209 129.12 51.9326 129.368 52.5352C129.624 53.1377 129.752 53.8104 129.752 54.5533C129.752 54.9577 129.694 55.3498 129.578 55.7295C129.463 56.1009 129.281 56.4517 129.034 56.7819C128.786 57.112 128.468 57.4133 128.08 57.6857C127.692 57.9498 127.226 58.1809 126.681 58.379C127.87 58.6679 128.749 59.1384 129.318 59.7904C129.888 60.4342 130.173 61.2638 130.173 62.279C130.173 63.0466 130.024 63.7606 129.727 64.4209C129.43 65.0812 128.992 65.659 128.415 66.1542C127.845 66.6412 127.139 67.025 126.297 67.3057C125.456 67.578 124.494 67.7142 123.413 67.7142H116.207ZM120.392 60.0628V64.5571H123.338C123.891 64.5571 124.341 64.4869 124.688 64.3466C125.043 64.2063 125.319 64.0247 125.517 63.8019C125.716 63.579 125.852 63.3272 125.926 63.0466C126 62.766 126.037 62.4812 126.037 62.1923C126.037 61.8622 125.992 61.565 125.901 61.3009C125.819 61.0368 125.67 60.8139 125.456 60.6323C125.249 60.4507 124.973 60.3104 124.626 60.2114C124.279 60.1123 123.842 60.0628 123.314 60.0628H120.392ZM120.392 57.2647H122.571C123.033 57.2647 123.45 57.2317 123.821 57.1657C124.193 57.0996 124.506 56.9841 124.762 56.819C125.026 56.6539 125.224 56.4269 125.357 56.138C125.497 55.8492 125.567 55.486 125.567 55.0485C125.567 54.6193 125.513 54.2644 125.406 53.9838C125.299 53.6949 125.134 53.4638 124.911 53.2904C124.688 53.1171 124.403 52.9933 124.057 52.919C123.718 52.8447 123.314 52.8076 122.843 52.8076H120.392V57.2647ZM138.177 54.6771C139.151 54.6771 140.038 54.8298 140.839 55.1352C141.64 55.4406 142.325 55.878 142.894 56.4476C143.472 57.0171 143.918 57.7104 144.231 58.5276C144.553 59.3365 144.714 60.2485 144.714 61.2638C144.714 62.2872 144.553 63.2117 144.231 64.0371C143.918 64.8542 143.472 65.5517 142.894 66.1295C142.325 66.699 141.64 67.1406 140.839 67.4542C140.038 67.7596 139.151 67.9123 138.177 67.9123C137.195 67.9123 136.299 67.7596 135.49 67.4542C134.69 67.1406 133.996 66.699 133.41 66.1295C132.833 65.5517 132.383 64.8542 132.061 64.0371C131.747 63.2117 131.59 62.2872 131.59 61.2638C131.59 60.2485 131.747 59.3365 132.061 58.5276C132.383 57.7104 132.833 57.0171 133.41 56.4476C133.996 55.878 134.69 55.4406 135.49 55.1352C136.299 54.8298 137.195 54.6771 138.177 54.6771ZM138.177 65.0647C139.06 65.0647 139.708 64.7552 140.121 64.1361C140.542 63.5088 140.752 62.5596 140.752 61.2885C140.752 60.0174 140.542 59.0723 140.121 58.4533C139.708 57.8342 139.06 57.5247 138.177 57.5247C137.269 57.5247 136.605 57.8342 136.184 58.4533C135.763 59.0723 135.552 60.0174 135.552 61.2885C135.552 62.5596 135.763 63.5088 136.184 64.1361C136.605 64.7552 137.269 65.0647 138.177 65.0647ZM152.541 54.6771C153.515 54.6771 154.402 54.8298 155.203 55.1352C156.003 55.4406 156.688 55.878 157.258 56.4476C157.836 57.0171 158.281 57.7104 158.595 58.5276C158.917 59.3365 159.078 60.2485 159.078 61.2638C159.078 62.2872 158.917 63.2117 158.595 64.0371C158.281 64.8542 157.836 65.5517 157.258 66.1295C156.688 66.699 156.003 67.1406 155.203 67.4542C154.402 67.7596 153.515 67.9123 152.541 67.9123C151.559 67.9123 150.663 67.7596 149.854 67.4542C149.054 67.1406 148.36 66.699 147.774 66.1295C147.196 65.5517 146.747 64.8542 146.425 64.0371C146.111 63.2117 145.954 62.2872 145.954 61.2638C145.954 60.2485 146.111 59.3365 146.425 58.5276C146.747 57.7104 147.196 57.0171 147.774 56.4476C148.36 55.878 149.054 55.4406 149.854 55.1352C150.663 54.8298 151.559 54.6771 152.541 54.6771ZM152.541 65.0647C153.424 65.0647 154.072 64.7552 154.485 64.1361C154.906 63.5088 155.116 62.5596 155.116 61.2885C155.116 60.0174 154.906 59.0723 154.485 58.4533C154.072 57.8342 153.424 57.5247 152.541 57.5247C151.633 57.5247 150.968 57.8342 150.548 58.4533C150.127 59.0723 149.916 60.0174 149.916 61.2885C149.916 62.5596 150.127 63.5088 150.548 64.1361C150.968 64.7552 151.633 65.0647 152.541 65.0647ZM165.691 67.9123C165.081 67.9123 164.54 67.8257 164.069 67.6523C163.607 67.4707 163.215 67.219 162.893 66.8971C162.58 66.5669 162.34 66.1707 162.175 65.7085C162.01 65.2463 161.928 64.7304 161.928 64.1609V57.5247H160.838C160.64 57.5247 160.471 57.4628 160.33 57.339C160.19 57.2069 160.12 57.0171 160.12 56.7695V55.2714L162.163 54.8752L162.918 51.7428C163.017 51.3466 163.298 51.1485 163.76 51.1485H165.766V54.8999H168.886V57.5247H165.766V63.9009C165.766 64.198 165.836 64.4457 165.976 64.6438C166.125 64.8336 166.335 64.9285 166.608 64.9285C166.748 64.9285 166.863 64.9161 166.954 64.8914C167.053 64.8584 167.136 64.8253 167.202 64.7923C167.276 64.7511 167.342 64.718 167.4 64.6933C167.466 64.6603 167.54 64.6438 167.623 64.6438C167.738 64.6438 167.829 64.6726 167.895 64.7304C167.969 64.7799 168.044 64.8625 168.118 64.978L169.282 66.798C168.787 67.1695 168.229 67.4501 167.61 67.6399C166.991 67.8215 166.352 67.9123 165.691 67.9123ZM178.949 57.6857C178.85 57.8425 178.742 57.9539 178.627 58.0199C178.519 58.086 178.379 58.119 178.206 58.119C178.024 58.119 177.843 58.0819 177.661 58.0076C177.479 57.925 177.281 57.8384 177.067 57.7476C176.86 57.6568 176.625 57.5742 176.361 57.4999C176.097 57.4174 175.796 57.3761 175.457 57.3761C174.97 57.3761 174.595 57.4711 174.331 57.6609C174.075 57.8425 173.947 58.0984 173.947 58.4285C173.947 58.6679 174.029 58.866 174.194 59.0228C174.368 59.1796 174.595 59.3199 174.875 59.4438C175.156 59.5593 175.474 59.6707 175.829 59.778C176.184 59.8853 176.547 60.005 176.918 60.1371C177.29 60.2692 177.653 60.426 178.008 60.6076C178.363 60.7809 178.68 60.9996 178.961 61.2638C179.242 61.5196 179.465 61.8333 179.63 62.2047C179.803 62.5761 179.89 63.0219 179.89 63.5419C179.89 64.1774 179.774 64.7634 179.543 65.2999C179.312 65.8365 178.965 66.2987 178.503 66.6866C178.049 67.0746 177.484 67.3758 176.807 67.5904C176.138 67.805 175.366 67.9123 174.491 67.9123C174.054 67.9123 173.617 67.8711 173.179 67.7885C172.742 67.706 172.317 67.5946 171.904 67.4542C171.499 67.3139 171.124 67.1488 170.777 66.959C170.431 66.7609 170.133 66.5504 169.886 66.3276L170.777 64.9161C170.885 64.7511 171.012 64.6231 171.161 64.5323C171.31 64.4333 171.504 64.3838 171.743 64.3838C171.966 64.3838 172.164 64.4333 172.337 64.5323C172.519 64.6314 172.713 64.7387 172.919 64.8542C173.125 64.9698 173.365 65.0771 173.637 65.1761C173.918 65.2752 174.269 65.3247 174.69 65.3247C174.987 65.3247 175.238 65.2958 175.445 65.238C175.651 65.172 175.816 65.0853 175.94 64.978C176.064 64.8707 176.155 64.7511 176.212 64.619C176.27 64.4869 176.299 64.3507 176.299 64.2104C176.299 63.9546 176.212 63.7441 176.039 63.579C175.866 63.4139 175.639 63.2736 175.358 63.158C175.078 63.0342 174.756 62.9228 174.392 62.8238C174.038 62.7165 173.674 62.5968 173.303 62.4647C172.931 62.3326 172.564 62.1758 172.201 61.9942C171.846 61.8044 171.528 61.5692 171.248 61.2885C170.967 60.9996 170.74 60.6488 170.567 60.2361C170.393 59.8234 170.307 59.3241 170.307 58.738C170.307 58.1933 170.41 57.6774 170.616 57.1904C170.831 56.6952 171.149 56.2619 171.57 55.8904C171.991 55.519 172.519 55.226 173.154 55.0114C173.79 54.7885 174.533 54.6771 175.383 54.6771C175.845 54.6771 176.291 54.7184 176.72 54.8009C177.158 54.8834 177.566 54.999 177.946 55.1476C178.325 55.2961 178.672 55.4736 178.986 55.6799C179.299 55.878 179.576 56.0968 179.815 56.3361L178.949 57.6857ZM186.512 67.9123C185.901 67.9123 185.36 67.8257 184.89 67.6523C184.428 67.4707 184.035 67.219 183.714 66.8971C183.4 66.5669 183.161 66.1707 182.995 65.7085C182.83 65.2463 182.748 64.7304 182.748 64.1609V57.5247H181.658C181.46 57.5247 181.291 57.4628 181.151 57.339C181.01 57.2069 180.94 57.0171 180.94 56.7695V55.2714L182.983 54.8752L183.738 51.7428C183.837 51.3466 184.118 51.1485 184.58 51.1485H186.586V54.8999H189.706V57.5247H186.586V63.9009C186.586 64.198 186.656 64.4457 186.796 64.6438C186.945 64.8336 187.155 64.9285 187.428 64.9285C187.568 64.9285 187.684 64.9161 187.775 64.8914C187.874 64.8584 187.956 64.8253 188.022 64.7923C188.096 64.7511 188.162 64.718 188.22 64.6933C188.286 64.6603 188.361 64.6438 188.443 64.6438C188.559 64.6438 188.649 64.6726 188.715 64.7304C188.79 64.7799 188.864 64.8625 188.938 64.978L190.102 66.798C189.607 67.1695 189.05 67.4501 188.431 67.6399C187.812 67.8215 187.172 67.9123 186.512 67.9123ZM191.919 67.7142V54.8752H194.198C194.387 54.8752 194.544 54.8917 194.668 54.9247C194.8 54.9577 194.907 55.0114 194.99 55.0857C195.081 55.1517 195.147 55.2425 195.188 55.358C195.238 55.4736 195.279 55.6139 195.312 55.779L195.522 56.9799C195.993 56.2536 196.521 55.6799 197.107 55.259C197.693 54.838 198.333 54.6276 199.026 54.6276C199.612 54.6276 200.083 54.7679 200.438 55.0485L199.942 57.8714C199.909 58.0447 199.843 58.1685 199.744 58.2428C199.645 58.3088 199.513 58.3419 199.348 58.3419C199.208 58.3419 199.043 58.3253 198.853 58.2923C198.663 58.2511 198.424 58.2304 198.135 58.2304C197.128 58.2304 196.335 58.7669 195.758 59.8399V67.7142H191.919ZM210.771 67.7142C210.408 67.7142 210.131 67.6647 209.942 67.5657C209.76 67.4666 209.607 67.2603 209.484 66.9466L209.211 66.2409C208.889 66.5133 208.58 66.7526 208.283 66.959C207.985 67.1653 207.676 67.3428 207.354 67.4914C207.04 67.6317 206.702 67.7349 206.339 67.8009C205.984 67.8752 205.588 67.9123 205.15 67.9123C204.564 67.9123 204.032 67.838 203.553 67.6895C203.074 67.5326 202.666 67.3057 202.327 67.0085C201.997 66.7114 201.741 66.3441 201.56 65.9066C201.378 65.4609 201.287 64.9492 201.287 64.3714C201.287 63.9174 201.403 63.4511 201.634 62.9723C201.865 62.4936 202.265 62.0603 202.835 61.6723C203.404 61.2761 204.172 60.946 205.138 60.6819C206.104 60.4177 207.321 60.2692 208.79 60.2361V59.6914C208.79 58.9403 208.633 58.3996 208.32 58.0695C208.014 57.7311 207.577 57.5619 207.007 57.5619C206.553 57.5619 206.182 57.6114 205.893 57.7104C205.604 57.8095 205.344 57.9209 205.113 58.0447C204.89 58.1685 204.671 58.2799 204.457 58.379C204.242 58.478 203.986 58.5276 203.689 58.5276C203.425 58.5276 203.198 58.4657 203.008 58.3419C202.827 58.2098 202.682 58.0488 202.575 57.859L201.882 56.658C202.658 55.973 203.516 55.4653 204.457 55.1352C205.406 54.7968 206.421 54.6276 207.503 54.6276C208.278 54.6276 208.976 54.7555 209.595 55.0114C210.222 55.259 210.751 55.6098 211.18 56.0638C211.617 56.5095 211.951 57.0419 212.183 57.6609C212.414 58.2799 212.529 58.9568 212.529 59.6914V67.7142H210.771ZM206.364 65.3742C206.859 65.3742 207.292 65.2876 207.664 65.1142C208.035 64.9409 208.411 64.6603 208.79 64.2723V62.4895C208.023 62.5225 207.391 62.5885 206.896 62.6876C206.401 62.7866 206.009 62.9104 205.72 63.059C205.431 63.2076 205.229 63.3768 205.113 63.5666C205.006 63.7565 204.952 63.9628 204.952 64.1857C204.952 64.6231 205.072 64.9326 205.311 65.1142C205.551 65.2876 205.901 65.3742 206.364 65.3742ZM215.255 71.7876V54.8752H217.632C217.871 54.8752 218.069 54.9288 218.226 55.0361C218.391 55.1434 218.507 55.3044 218.573 55.519L218.857 56.4599C219.105 56.1876 219.369 55.9399 219.65 55.7171C219.939 55.4942 220.244 55.3044 220.566 55.1476C220.896 54.9825 221.247 54.8546 221.618 54.7638C221.998 54.673 222.411 54.6276 222.857 54.6276C223.525 54.6276 224.144 54.7761 224.714 55.0733C225.283 55.3704 225.774 55.7996 226.187 56.3609C226.6 56.9222 226.922 57.6114 227.153 58.4285C227.392 59.2374 227.512 60.1577 227.512 61.1895C227.512 62.1552 227.376 63.0466 227.103 63.8638C226.839 64.6809 226.464 65.3907 225.977 65.9933C225.498 66.5958 224.92 67.0663 224.243 67.4047C223.575 67.7431 222.832 67.9123 222.015 67.9123C221.346 67.9123 220.785 67.8174 220.331 67.6276C219.877 67.4377 219.464 67.1819 219.093 66.8599V71.7876H215.255ZM221.519 57.5619C221.239 57.5619 220.983 57.5907 220.752 57.6485C220.529 57.698 220.318 57.7723 220.12 57.8714C219.93 57.9704 219.753 58.0984 219.588 58.2552C219.423 58.4038 219.258 58.5771 219.093 58.7752V64.2228C219.382 64.5447 219.695 64.7717 220.034 64.9038C220.372 65.0276 220.727 65.0895 221.098 65.0895C221.453 65.0895 221.779 65.0193 222.077 64.879C222.374 64.7387 222.63 64.5158 222.844 64.2104C223.067 63.8968 223.24 63.4923 223.364 62.9971C223.488 62.5019 223.55 61.8993 223.55 61.1895C223.55 60.5126 223.5 59.9431 223.401 59.4809C223.302 59.0187 223.162 58.6472 222.98 58.3666C222.807 58.0777 222.597 57.8714 222.349 57.7476C222.101 57.6238 221.825 57.5619 221.519 57.5619Z" fill="#D63384"/>
</svg>
