<svg width="240" height="80" viewBox="0 0 240 80" fill="none" xmlns="http://www.w3.org/2000/svg">
<rect x="12" y="12" width="60" height="60" rx="15" fill="#52A1B9"/>
<path d="M41.3485 52.2341C39.0212 52.3021 36.694 52.0935 34.4158 51.6127C33.5874 51.4439 32.8113 51.0794 32.1524 50.5496C31.4936 50.0198 30.971 49.3401 30.6283 48.5672C29.9498 47.0028 29.6217 44.5902 29.6439 41.3293C29.6563 39.6253 29.7631 37.9234 29.9638 36.2313C30.159 34.5832 30.3543 33.2251 30.5495 32.157L30.755 31.0951C30.7575 31.064 30.7575 31.0327 30.755 31.0016C30.7545 30.8582 30.704 30.7194 30.6121 30.6093C30.5202 30.4992 30.3927 30.4247 30.2517 30.3986L26.3818 29.7957H26.2981C26.1612 29.797 26.0287 29.8439 25.9215 29.9291C25.8143 30.0142 25.7385 30.1327 25.7062 30.2657C25.6398 30.5118 25.6016 30.6976 25.4859 31.2883C25.2644 32.4277 25.0602 33.5389 24.8325 35.1595C24.5939 36.9196 24.4485 38.6912 24.3969 40.4667C24.312 41.7035 24.312 42.9448 24.3969 44.1816C24.488 47.463 25.0516 50.0856 26.0877 52.0495C27.1238 54.0134 28.8785 55.4253 31.3518 56.285C33.8251 57.1472 37.2706 57.5692 41.6881 57.5512H42.2443C46.6668 57.5692 50.1123 57.1472 52.5807 56.285C55.0491 55.4228 56.8038 54.011 57.8448 52.0495C58.8809 50.0856 59.4449 47.463 59.5368 44.1816C59.6205 42.9447 59.6205 41.7036 59.5368 40.4667C59.4848 38.6912 59.339 36.9196 59.0999 35.1595C58.8735 33.5598 58.668 32.4523 58.4478 31.2883C58.3247 30.6976 58.2927 30.5143 58.2263 30.2657C58.1952 30.132 58.1197 30.0129 58.0123 29.9275C57.9048 29.8422 57.7716 29.7957 57.6344 29.7957H57.5347L53.6648 30.3986C53.5222 30.4223 53.3928 30.496 53.2996 30.6065C53.2065 30.717 53.1558 30.8571 53.1566 31.0016C53.1541 31.0327 53.1541 31.064 53.1566 31.0951L53.3608 32.157C53.5561 33.2284 53.7534 34.5865 53.9527 36.2313C54.1506 37.9236 54.2557 39.6255 54.2677 41.3293C54.3005 44.5844 53.9724 46.995 53.2833 48.561C52.9433 49.3328 52.4241 50.0123 51.7688 50.543C51.1135 51.0738 50.341 51.4405 49.5155 51.6127C47.2391 52.0947 44.9135 52.3046 42.5876 52.2378L41.3485 52.2341Z" fill="white"/>
<path d="M48.7431 31.3349V34.4616H43.9598V48.3333H40.0164V34.4616H35.2331V31.3349H48.7431Z" fill="white"/>
<path d="M91.3893 32.9147C91.9132 32.9147 92.3793 32.8299 92.7876 32.6604C93.2036 32.4833 93.5541 32.2329 93.8391 31.9093C94.1241 31.5858 94.3399 31.1929 94.4862 30.7307C94.6403 30.2607 94.7173 29.7292 94.7173 29.136V19.1636H98.6231V29.136C98.6231 30.1683 98.4536 31.1159 98.1147 31.9787C97.7834 32.8415 97.3058 33.5849 96.6818 34.2089C96.0578 34.8329 95.299 35.3182 94.4053 35.6649C93.5117 36.0116 92.5064 36.1849 91.3893 36.1849C90.2646 36.1849 89.2554 36.0116 88.3618 35.6649C87.4681 35.3182 86.7093 34.8329 86.0853 34.2089C85.4613 33.5849 84.9837 32.8415 84.6524 31.9787C84.3212 31.1159 84.1556 30.1683 84.1556 29.136V19.1636H88.0613V29.1244C88.0613 29.7176 88.1345 30.2492 88.2809 30.7191C88.435 31.1813 88.6545 31.5781 88.9396 31.9093C89.2246 32.2329 89.5713 32.4833 89.9796 32.6604C90.3956 32.8299 90.8655 32.9147 91.3893 32.9147ZM101.156 36V24.0169H103.374C103.598 24.0169 103.783 24.067 103.929 24.1671C104.083 24.2673 104.191 24.4175 104.253 24.6178L104.449 25.2649C104.649 25.0569 104.857 24.8681 105.073 24.6987C105.289 24.5215 105.52 24.3713 105.766 24.248C106.021 24.117 106.29 24.0169 106.575 23.9476C106.868 23.8705 107.188 23.832 107.534 23.832C108.259 23.832 108.856 24.0207 109.326 24.3982C109.803 24.768 110.165 25.2649 110.412 25.8889C110.612 25.5191 110.855 25.2033 111.14 24.9413C111.433 24.6794 111.745 24.4676 112.076 24.3058C112.415 24.144 112.769 24.0246 113.139 23.9476C113.516 23.8705 113.89 23.832 114.26 23.832C114.945 23.832 115.554 23.936 116.086 24.144C116.617 24.3443 117.06 24.6409 117.414 25.0338C117.777 25.419 118.05 25.8966 118.235 26.4667C118.42 27.029 118.512 27.6684 118.512 28.3849V36H114.93V28.3849C114.93 27.1446 114.398 26.5244 113.335 26.5244C112.85 26.5244 112.446 26.6862 112.122 27.0098C111.806 27.3256 111.648 27.784 111.648 28.3849V36H108.066V28.3849C108.066 27.6993 107.931 27.2178 107.662 26.9404C107.392 26.6631 106.995 26.5244 106.471 26.5244C106.148 26.5244 105.84 26.5976 105.547 26.744C105.262 26.8904 104.992 27.0868 104.738 27.3333V36H101.156ZM133.288 19.1636V22.2604H128.55V36H124.644V22.2604H119.906V19.1636H133.288ZM137.726 23.832C138.519 23.832 139.243 23.9553 139.898 24.2018C140.561 24.4483 141.127 24.8065 141.597 25.2764C142.074 25.7464 142.444 26.3241 142.706 27.0098C142.976 27.6877 143.111 28.4581 143.111 29.3209C143.111 29.5905 143.099 29.8101 143.076 29.9796C143.053 30.149 143.01 30.2839 142.949 30.384C142.887 30.4841 142.802 30.5535 142.695 30.592C142.594 30.6305 142.463 30.6498 142.302 30.6498H135.391C135.507 31.6513 135.811 32.3793 136.304 32.8338C136.797 33.2806 137.433 33.504 138.211 33.504C138.627 33.504 138.985 33.4539 139.286 33.3538C139.586 33.2536 139.852 33.1419 140.083 33.0187C140.322 32.8954 140.538 32.7837 140.73 32.6836C140.93 32.5834 141.138 32.5333 141.354 32.5333C141.639 32.5333 141.855 32.6373 142.001 32.8453L143.041 34.128C142.671 34.5517 142.271 34.8984 141.839 35.168C141.416 35.4299 140.977 35.6379 140.522 35.792C140.075 35.9384 139.625 36.0385 139.17 36.0924C138.723 36.1541 138.296 36.1849 137.887 36.1849C137.048 36.1849 136.258 36.0501 135.519 35.7804C134.787 35.5031 134.143 35.0948 133.589 34.5556C133.042 34.0163 132.607 33.3461 132.283 32.5449C131.967 31.7437 131.809 30.8116 131.809 29.7484C131.809 28.9473 131.944 28.1884 132.214 27.472C132.491 26.7556 132.884 26.1277 133.392 25.5884C133.908 25.0492 134.529 24.6216 135.253 24.3058C135.985 23.9899 136.809 23.832 137.726 23.832ZM137.795 26.3049C137.109 26.3049 136.574 26.5013 136.189 26.8942C135.804 27.2794 135.549 27.8379 135.426 28.5698H139.898C139.898 28.2847 139.86 28.0074 139.783 27.7378C139.713 27.4681 139.594 27.2293 139.424 27.0213C139.263 26.8056 139.047 26.6323 138.777 26.5013C138.508 26.3704 138.18 26.3049 137.795 26.3049ZM145.166 36V24.0169H147.385C147.608 24.0169 147.793 24.067 147.94 24.1671C148.094 24.2673 148.201 24.4175 148.263 24.6178L148.46 25.2649C148.66 25.0569 148.868 24.8681 149.084 24.6987C149.299 24.5215 149.53 24.3713 149.777 24.248C150.031 24.117 150.301 24.0169 150.586 23.9476C150.878 23.8705 151.198 23.832 151.545 23.832C152.269 23.832 152.866 24.0207 153.336 24.3982C153.814 24.768 154.176 25.2649 154.422 25.8889C154.622 25.5191 154.865 25.2033 155.15 24.9413C155.443 24.6794 155.755 24.4676 156.086 24.3058C156.425 24.144 156.78 24.0246 157.149 23.9476C157.527 23.8705 157.9 23.832 158.27 23.832C158.956 23.832 159.564 23.936 160.096 24.144C160.628 24.3443 161.07 24.6409 161.425 25.0338C161.787 25.419 162.06 25.8966 162.245 26.4667C162.43 27.029 162.523 27.6684 162.523 28.3849V36H158.94V28.3849C158.94 27.1446 158.409 26.5244 157.346 26.5244C156.86 26.5244 156.456 26.6862 156.132 27.0098C155.817 27.3256 155.659 27.784 155.659 28.3849V36H152.076V28.3849C152.076 27.6993 151.942 27.2178 151.672 26.9404C151.402 26.6631 151.006 26.5244 150.482 26.5244C150.158 26.5244 149.85 26.5976 149.557 26.744C149.272 26.8904 149.003 27.0868 148.748 27.3333V36H145.166ZM165.072 39.8018V24.0169H167.291C167.515 24.0169 167.699 24.067 167.846 24.1671C168 24.2673 168.108 24.4175 168.169 24.6178L168.435 25.496C168.666 25.2418 168.913 25.0107 169.175 24.8027C169.444 24.5947 169.729 24.4175 170.03 24.2711C170.338 24.117 170.665 23.9976 171.012 23.9129C171.366 23.8281 171.752 23.7858 172.168 23.7858C172.792 23.7858 173.369 23.9244 173.901 24.2018C174.432 24.4791 174.891 24.8797 175.276 25.4036C175.661 25.9274 175.962 26.5707 176.177 27.3333C176.401 28.0883 176.512 28.9473 176.512 29.9102C176.512 30.8116 176.385 31.6436 176.131 32.4062C175.885 33.1689 175.534 33.8314 175.08 34.3938C174.633 34.9561 174.093 35.3953 173.462 35.7111C172.838 36.027 172.144 36.1849 171.382 36.1849C170.758 36.1849 170.234 36.0963 169.81 35.9191C169.387 35.7419 169.001 35.5031 168.655 35.2027V39.8018H165.072ZM170.92 26.5244C170.658 26.5244 170.419 26.5514 170.203 26.6053C169.995 26.6516 169.799 26.7209 169.614 26.8133C169.437 26.9058 169.271 27.0252 169.117 27.1716C168.963 27.3102 168.809 27.472 168.655 27.6569V32.7413C168.924 33.0418 169.217 33.2536 169.533 33.3769C169.849 33.4924 170.18 33.5502 170.527 33.5502C170.858 33.5502 171.162 33.4847 171.44 33.3538C171.717 33.2228 171.956 33.0148 172.156 32.7298C172.364 32.437 172.526 32.0596 172.641 31.5973C172.757 31.1351 172.815 30.5727 172.815 29.9102C172.815 29.2785 172.768 28.747 172.676 28.3156C172.584 27.8841 172.453 27.5375 172.283 27.2756C172.121 27.0059 171.925 26.8133 171.694 26.6978C171.463 26.5822 171.205 26.5244 170.92 26.5244ZM182.131 18.7013V36H178.549V18.7013H182.131ZM193.298 36C192.959 36 192.701 35.9538 192.523 35.8613C192.354 35.7689 192.211 35.5763 192.096 35.2836L191.842 34.6249C191.541 34.8791 191.252 35.1025 190.975 35.2951C190.698 35.4877 190.409 35.6533 190.108 35.792C189.816 35.923 189.5 36.0193 189.161 36.0809C188.829 36.1502 188.46 36.1849 188.051 36.1849C187.504 36.1849 187.008 36.1156 186.561 35.9769C186.114 35.8305 185.733 35.6187 185.417 35.3413C185.109 35.064 184.87 34.7212 184.7 34.3129C184.531 33.8969 184.446 33.4193 184.446 32.88C184.446 32.4563 184.554 32.021 184.77 31.5742C184.985 31.1274 185.359 30.723 185.89 30.3609C186.422 29.9911 187.138 29.683 188.04 29.4364C188.941 29.1899 190.077 29.0513 191.449 29.0204V28.512C191.449 27.811 191.302 27.3064 191.01 26.9982C190.725 26.6824 190.316 26.5244 189.785 26.5244C189.361 26.5244 189.014 26.5707 188.745 26.6631C188.475 26.7556 188.232 26.8596 188.017 26.9751C187.809 27.0907 187.605 27.1947 187.404 27.2871C187.204 27.3796 186.965 27.4258 186.688 27.4258C186.441 27.4258 186.229 27.368 186.052 27.2524C185.883 27.1292 185.748 26.979 185.648 26.8018L185.001 25.6809C185.725 25.0415 186.526 24.5677 187.404 24.2596C188.29 23.9437 189.238 23.7858 190.247 23.7858C190.971 23.7858 191.622 23.9052 192.2 24.144C192.785 24.3751 193.278 24.7025 193.679 25.1262C194.087 25.5422 194.399 26.0391 194.615 26.6169C194.831 27.1947 194.938 27.8264 194.938 28.512V36H193.298ZM189.184 33.816C189.646 33.816 190.05 33.7351 190.397 33.5733C190.744 33.4116 191.094 33.1496 191.449 32.7876V31.1236C190.732 31.1544 190.143 31.216 189.681 31.3084C189.218 31.4009 188.853 31.5164 188.583 31.6551C188.313 31.7938 188.125 31.9517 188.017 32.1289C187.917 32.3061 187.866 32.4987 187.866 32.7067C187.866 33.115 187.978 33.4039 188.202 33.5733C188.425 33.7351 188.752 33.816 189.184 33.816ZM201.688 36.1849C201.118 36.1849 200.614 36.104 200.175 35.9422C199.743 35.7727 199.377 35.5378 199.077 35.2373C198.784 34.9292 198.561 34.5594 198.407 34.128C198.253 33.6966 198.175 33.2151 198.175 32.6836V26.4898H197.159C196.974 26.4898 196.816 26.432 196.685 26.3164C196.554 26.1932 196.488 26.016 196.488 25.7849V24.3867L198.395 24.0169L199.1 21.0933C199.192 20.7236 199.454 20.5387 199.886 20.5387H201.758V24.04H204.67V26.4898H201.758V32.4409C201.758 32.7182 201.823 32.9493 201.954 33.1342C202.093 33.3114 202.289 33.4 202.543 33.4C202.674 33.4 202.782 33.3884 202.867 33.3653C202.959 33.3345 203.037 33.3037 203.098 33.2729C203.167 33.2344 203.229 33.2036 203.283 33.1804C203.345 33.1496 203.414 33.1342 203.491 33.1342C203.599 33.1342 203.684 33.1612 203.745 33.2151C203.815 33.2613 203.884 33.3384 203.953 33.4462L205.039 35.1449C204.577 35.4916 204.057 35.7535 203.479 35.9307C202.902 36.1001 202.305 36.1849 201.688 36.1849ZM211.866 23.832C212.66 23.832 213.384 23.9553 214.039 24.2018C214.701 24.4483 215.267 24.8065 215.737 25.2764C216.215 25.7464 216.585 26.3241 216.847 27.0098C217.116 27.6877 217.251 28.4581 217.251 29.3209C217.251 29.5905 217.24 29.8101 217.217 29.9796C217.193 30.149 217.151 30.2839 217.089 30.384C217.028 30.4841 216.943 30.5535 216.835 30.592C216.735 30.6305 216.604 30.6498 216.442 30.6498H209.532C209.648 31.6513 209.952 32.3793 210.445 32.8338C210.938 33.2806 211.574 33.504 212.352 33.504C212.768 33.504 213.126 33.4539 213.426 33.3538C213.727 33.2536 213.993 33.1419 214.224 33.0187C214.462 32.8954 214.678 32.7837 214.871 32.6836C215.071 32.5834 215.279 32.5333 215.495 32.5333C215.78 32.5333 215.995 32.6373 216.142 32.8453L217.182 34.128C216.812 34.5517 216.411 34.8984 215.98 35.168C215.556 35.4299 215.117 35.6379 214.663 35.792C214.216 35.9384 213.765 36.0385 213.311 36.0924C212.864 36.1541 212.436 36.1849 212.028 36.1849C211.188 36.1849 210.399 36.0501 209.659 35.7804C208.927 35.5031 208.284 35.0948 207.729 34.5556C207.182 34.0163 206.747 33.3461 206.424 32.5449C206.108 31.7437 205.95 30.8116 205.95 29.7484C205.95 28.9473 206.085 28.1884 206.354 27.472C206.632 26.7556 207.025 26.1277 207.533 25.5884C208.049 25.0492 208.669 24.6216 209.393 24.3058C210.125 23.9899 210.95 23.832 211.866 23.832ZM211.936 26.3049C211.25 26.3049 210.715 26.5013 210.329 26.8942C209.944 27.2794 209.69 27.8379 209.567 28.5698H214.039C214.039 28.2847 214 28.0074 213.923 27.7378C213.854 27.4681 213.734 27.2293 213.565 27.0213C213.403 26.8056 213.187 26.6323 212.918 26.5013C212.648 26.3704 212.321 26.3049 211.936 26.3049ZM226.633 26.64C226.541 26.7864 226.44 26.8904 226.333 26.952C226.232 27.0136 226.101 27.0444 225.94 27.0444C225.77 27.0444 225.601 27.0098 225.431 26.9404C225.262 26.8634 225.077 26.7825 224.877 26.6978C224.684 26.613 224.464 26.536 224.218 26.4667C223.971 26.3896 223.69 26.3511 223.374 26.3511C222.92 26.3511 222.569 26.4397 222.323 26.6169C222.084 26.7864 221.965 27.0252 221.965 27.3333C221.965 27.5567 222.042 27.7416 222.196 27.888C222.357 28.0344 222.569 28.1653 222.831 28.2809C223.093 28.3887 223.39 28.4927 223.721 28.5929C224.052 28.693 224.391 28.8047 224.738 28.928C225.085 29.0513 225.424 29.1976 225.755 29.3671C226.086 29.5289 226.383 29.733 226.645 29.9796C226.907 30.2184 227.115 30.5111 227.269 30.8578C227.43 31.2044 227.511 31.6204 227.511 32.1058C227.511 32.699 227.403 33.2459 227.188 33.7467C226.972 34.2474 226.648 34.6788 226.217 35.0409C225.793 35.403 225.266 35.6841 224.634 35.8844C224.01 36.0847 223.29 36.1849 222.473 36.1849C222.065 36.1849 221.656 36.1464 221.248 36.0693C220.84 35.9923 220.443 35.8883 220.058 35.7573C219.68 35.6264 219.33 35.4723 219.006 35.2951C218.683 35.1102 218.405 34.9138 218.174 34.7058L219.006 33.3884C219.107 33.2344 219.226 33.115 219.365 33.0302C219.503 32.9378 219.684 32.8916 219.908 32.8916C220.116 32.8916 220.301 32.9378 220.462 33.0302C220.632 33.1227 220.813 33.2228 221.005 33.3307C221.198 33.4385 221.421 33.5387 221.676 33.6311C221.938 33.7236 222.265 33.7698 222.658 33.7698C222.935 33.7698 223.17 33.7428 223.363 33.6889C223.555 33.6273 223.709 33.5464 223.825 33.4462C223.941 33.3461 224.025 33.2344 224.079 33.1111C224.133 32.9879 224.16 32.8607 224.16 32.7298C224.16 32.491 224.079 32.2945 223.917 32.1404C223.756 31.9864 223.544 31.8554 223.282 31.7476C223.02 31.632 222.72 31.528 222.381 31.4356C222.049 31.3354 221.71 31.2237 221.364 31.1004C221.017 30.9772 220.674 30.8308 220.335 30.6613C220.004 30.4841 219.707 30.2646 219.445 30.0027C219.184 29.733 218.972 29.4056 218.81 29.0204C218.648 28.6353 218.567 28.1692 218.567 27.6222C218.567 27.1138 218.664 26.6323 218.856 26.1778C219.056 25.7156 219.353 25.3111 219.746 24.9644C220.139 24.6178 220.632 24.3443 221.225 24.144C221.818 23.936 222.512 23.832 223.305 23.832C223.736 23.832 224.152 23.8705 224.553 23.9476C224.961 24.0246 225.343 24.1324 225.697 24.2711C226.051 24.4098 226.375 24.5754 226.668 24.768C226.96 24.9529 227.219 25.157 227.442 25.3804L226.633 26.64Z" fill="#52A1B9"/>
<path d="M91.5186 61.8671C92.0505 61.8671 92.5238 61.7811 92.9383 61.609C93.3608 61.4291 93.7167 61.1749 94.0061 60.8463C94.2955 60.5178 94.5146 60.1188 94.6632 59.6495C94.8196 59.1723 94.8979 58.6326 94.8979 58.0303V47.9042H98.8638V58.0303C98.8638 59.0785 98.6917 60.0406 98.3475 60.9167C98.0112 61.7928 97.5262 62.5477 96.8926 63.1813C96.2589 63.8149 95.4884 64.3077 94.581 64.6597C93.6736 65.0117 92.6528 65.1877 91.5186 65.1877C90.3765 65.1877 89.3518 65.0117 88.4444 64.6597C87.537 64.3077 86.7665 63.8149 86.1329 63.1813C85.4993 62.5477 85.0143 61.7928 84.6779 60.9167C84.3415 60.0406 84.1734 59.0785 84.1734 58.0303V47.9042H88.1393V58.0185C88.1393 58.6208 88.2136 59.1606 88.3622 59.6378C88.5187 60.1071 88.7416 60.5099 89.0311 60.8463C89.3205 61.1749 89.6725 61.4291 90.0871 61.609C90.5095 61.7811 90.9867 61.8671 91.5186 61.8671ZM101.435 65V52.8323H103.688C103.915 52.8323 104.103 52.8831 104.252 52.9848C104.408 53.0865 104.517 53.239 104.58 53.4424L104.78 54.0995C104.983 53.8883 105.194 53.6966 105.413 53.5246C105.632 53.3446 105.867 53.1921 106.117 53.0669C106.375 52.934 106.649 52.8323 106.939 52.7619C107.236 52.6836 107.56 52.6445 107.912 52.6445C108.648 52.6445 109.254 52.8362 109.731 53.2195C110.216 53.595 110.584 54.0995 110.834 54.7331C111.037 54.3576 111.284 54.0369 111.573 53.771C111.871 53.505 112.187 53.2899 112.524 53.1256C112.868 52.9613 113.228 52.8401 113.603 52.7619C113.986 52.6836 114.366 52.6445 114.741 52.6445C115.438 52.6445 116.056 52.7501 116.595 52.9613C117.135 53.1647 117.585 53.4659 117.945 53.8648C118.312 54.2559 118.59 54.7409 118.778 55.3198C118.965 55.8908 119.059 56.5401 119.059 57.2676V65H115.422V57.2676C115.422 56.0082 114.882 55.3785 113.803 55.3785C113.31 55.3785 112.899 55.5427 112.571 55.8713C112.25 56.192 112.09 56.6574 112.09 57.2676V65H108.452V57.2676C108.452 56.5714 108.315 56.0825 108.041 55.8009C107.768 55.5193 107.365 55.3785 106.833 55.3785C106.504 55.3785 106.191 55.4528 105.894 55.6014C105.605 55.75 105.331 55.9495 105.073 56.1998V65H101.435ZM121.648 65V47.9042H127.938C129.119 47.9042 130.124 48.0137 130.953 48.2327C131.782 48.4517 132.459 48.7607 132.983 49.1597C133.507 49.5586 133.887 50.0436 134.121 50.6146C134.364 51.1857 134.485 51.8232 134.485 52.5272C134.485 52.9105 134.43 53.2821 134.321 53.6419C134.211 53.9939 134.039 54.3264 133.804 54.6392C133.57 54.9521 133.269 55.2377 132.901 55.4958C132.533 55.7461 132.091 55.9651 131.575 56.1529C132.701 56.4267 133.535 56.8725 134.074 57.4905C134.614 58.1007 134.884 58.8868 134.884 59.849C134.884 60.5764 134.743 61.2531 134.461 61.8789C134.18 62.5047 133.765 63.0522 133.218 63.5216C132.678 63.9831 132.009 64.3468 131.211 64.6128C130.413 64.8709 129.502 65 128.477 65H121.648ZM125.614 57.7486V62.0079H128.407C128.931 62.0079 129.357 61.9414 129.686 61.8085C130.022 61.6755 130.284 61.5034 130.472 61.2922C130.66 61.081 130.789 60.8424 130.859 60.5764C130.93 60.3105 130.965 60.0406 130.965 59.7668C130.965 59.4539 130.922 59.1723 130.836 58.922C130.758 58.6717 130.617 58.4605 130.413 58.2884C130.218 58.1163 129.956 57.9833 129.627 57.8894C129.299 57.7956 128.884 57.7486 128.383 57.7486H125.614ZM125.614 55.0969H127.679C128.118 55.0969 128.513 55.0656 128.865 55.003C129.217 54.9404 129.514 54.8309 129.756 54.6744C130.007 54.518 130.194 54.3029 130.32 54.0291C130.452 53.7553 130.519 53.4111 130.519 52.9965C130.519 52.5898 130.468 52.2534 130.366 51.9875C130.265 51.7137 130.108 51.4946 129.897 51.3304C129.686 51.1661 129.416 51.0488 129.087 50.9784C128.767 50.908 128.383 50.8728 127.938 50.8728H125.614V55.0969ZM142.47 52.6445C143.393 52.6445 144.234 52.7893 144.992 53.0787C145.751 53.3681 146.4 53.7827 146.94 54.3224C147.488 54.8622 147.91 55.5193 148.207 56.2937C148.512 57.0603 148.665 57.9246 148.665 58.8868C148.665 59.8568 148.512 60.7329 148.207 61.5151C147.91 62.2895 147.488 62.9505 146.94 63.4981C146.4 64.0378 145.751 64.4563 144.992 64.7536C144.234 65.043 143.393 65.1877 142.47 65.1877C141.539 65.1877 140.69 65.043 139.923 64.7536C139.165 64.4563 138.508 64.0378 137.952 63.4981C137.405 62.9505 136.978 62.2895 136.673 61.5151C136.376 60.7329 136.227 59.8568 136.227 58.8868C136.227 57.9246 136.376 57.0603 136.673 56.2937C136.978 55.5193 137.405 54.8622 137.952 54.3224C138.508 53.7827 139.165 53.3681 139.923 53.0787C140.69 52.7893 141.539 52.6445 142.47 52.6445ZM142.47 62.489C143.307 62.489 143.921 62.1957 144.312 61.609C144.711 61.0145 144.91 60.1149 144.91 58.9103C144.91 57.7056 144.711 56.81 144.312 56.2233C143.921 55.6366 143.307 55.3433 142.47 55.3433C141.609 55.3433 140.979 55.6366 140.581 56.2233C140.182 56.81 139.982 57.7056 139.982 58.9103C139.982 60.1149 140.182 61.0145 140.581 61.609C140.979 62.1957 141.609 62.489 142.47 62.489ZM156.082 52.6445C157.005 52.6445 157.846 52.7893 158.605 53.0787C159.364 53.3681 160.013 53.7827 160.553 54.3224C161.1 54.8622 161.523 55.5193 161.82 56.2937C162.125 57.0603 162.278 57.9246 162.278 58.8868C162.278 59.8568 162.125 60.7329 161.82 61.5151C161.523 62.2895 161.1 62.9505 160.553 63.4981C160.013 64.0378 159.364 64.4563 158.605 64.7536C157.846 65.043 157.005 65.1877 156.082 65.1877C155.152 65.1877 154.303 65.043 153.536 64.7536C152.777 64.4563 152.12 64.0378 151.565 63.4981C151.017 62.9505 150.591 62.2895 150.286 61.5151C149.989 60.7329 149.84 59.8568 149.84 58.8868C149.84 57.9246 149.989 57.0603 150.286 56.2937C150.591 55.5193 151.017 54.8622 151.565 54.3224C152.12 53.7827 152.777 53.3681 153.536 53.0787C154.303 52.7893 155.152 52.6445 156.082 52.6445ZM156.082 62.489C156.919 62.489 157.533 62.1957 157.925 61.609C158.324 61.0145 158.523 60.1149 158.523 58.9103C158.523 57.7056 158.324 56.81 157.925 56.2233C157.533 55.6366 156.919 55.3433 156.082 55.3433C155.222 55.3433 154.592 55.6366 154.193 56.2233C153.794 56.81 153.595 57.7056 153.595 58.9103C153.595 60.1149 153.794 61.0145 154.193 61.609C154.592 62.1957 155.222 62.489 156.082 62.489ZM168.545 65.1877C167.966 65.1877 167.454 65.1056 167.008 64.9413C166.57 64.7692 166.199 64.5307 165.894 64.2256C165.596 63.9127 165.369 63.5372 165.213 63.0992C165.057 62.6611 164.978 62.1722 164.978 61.6325V55.3433H163.946C163.758 55.3433 163.598 55.2846 163.465 55.1673C163.332 55.0421 163.265 54.8622 163.265 54.6275V53.2078L165.201 52.8323L165.917 49.8637C166.011 49.4882 166.277 49.3005 166.715 49.3005H168.616V52.8557H171.573V55.3433H168.616V61.3861C168.616 61.6677 168.682 61.9023 168.815 62.0901C168.956 62.27 169.155 62.3599 169.414 62.3599C169.547 62.3599 169.656 62.3482 169.742 62.3247C169.836 62.2935 169.914 62.2622 169.977 62.2309C170.047 62.1918 170.11 62.1605 170.165 62.137C170.227 62.1057 170.298 62.0901 170.376 62.0901C170.485 62.0901 170.571 62.1175 170.634 62.1722C170.704 62.2191 170.775 62.2974 170.845 62.4069L171.948 64.1317C171.479 64.4837 170.951 64.7497 170.364 64.9296C169.777 65.1017 169.171 65.1877 168.545 65.1877ZM181.109 55.4958C181.016 55.6444 180.914 55.75 180.804 55.8126C180.703 55.8752 180.57 55.9065 180.405 55.9065C180.233 55.9065 180.061 55.8713 179.889 55.8009C179.717 55.7226 179.529 55.6405 179.326 55.5545C179.13 55.4684 178.907 55.3902 178.657 55.3198C178.407 55.2416 178.121 55.2025 177.801 55.2025C177.339 55.2025 176.983 55.2924 176.733 55.4723C176.49 55.6444 176.369 55.8869 176.369 56.1998C176.369 56.4267 176.447 56.6144 176.604 56.763C176.768 56.9117 176.983 57.0446 177.249 57.162C177.515 57.2715 177.816 57.3771 178.153 57.4788C178.489 57.5805 178.833 57.6939 179.185 57.819C179.537 57.9442 179.881 58.0928 180.218 58.2649C180.554 58.4292 180.855 58.6365 181.121 58.8868C181.387 59.1293 181.598 59.4265 181.755 59.7786C181.919 60.1306 182.001 60.553 182.001 61.0458C182.001 61.6481 181.892 62.2035 181.673 62.712C181.454 63.2204 181.125 63.6585 180.687 64.0261C180.257 64.3938 179.721 64.6793 179.08 64.8827C178.446 65.086 177.715 65.1877 176.885 65.1877C176.471 65.1877 176.056 65.1486 175.642 65.0704C175.227 64.9922 174.824 64.8866 174.433 64.7536C174.05 64.6206 173.694 64.4642 173.365 64.2843C173.037 64.0965 172.755 63.897 172.52 63.6858L173.365 62.3482C173.467 62.1918 173.588 62.0705 173.729 61.9845C173.87 61.8906 174.054 61.8437 174.28 61.8437C174.492 61.8437 174.679 61.8906 174.844 61.9845C175.016 62.0783 175.2 62.18 175.395 62.2895C175.591 62.3991 175.818 62.5007 176.076 62.5946C176.342 62.6885 176.674 62.7354 177.073 62.7354C177.355 62.7354 177.593 62.708 177.789 62.6533C177.984 62.5907 178.141 62.5086 178.258 62.4069C178.376 62.3052 178.462 62.1918 178.516 62.0666C178.571 61.9414 178.598 61.8124 178.598 61.6794C178.598 61.4369 178.516 61.2374 178.352 61.081C178.188 60.9245 177.973 60.7916 177.707 60.682C177.441 60.5647 177.136 60.4591 176.791 60.3652C176.455 60.2635 176.111 60.1501 175.759 60.025C175.407 59.8998 175.059 59.7512 174.715 59.5791C174.378 59.3992 174.077 59.1762 173.811 58.9103C173.545 58.6365 173.33 58.304 173.166 57.9129C173.002 57.5218 172.919 57.0485 172.919 56.4932C172.919 55.9769 173.017 55.488 173.213 55.0265C173.416 54.5571 173.717 54.1464 174.116 53.7944C174.515 53.4424 175.016 53.1647 175.618 52.9613C176.22 52.7501 176.924 52.6445 177.73 52.6445C178.168 52.6445 178.591 52.6836 178.997 52.7619C179.412 52.8401 179.799 52.9496 180.159 53.0904C180.519 53.2312 180.847 53.3994 181.145 53.595C181.442 53.7827 181.704 53.99 181.931 54.2168L181.109 55.4958ZM188.277 65.1877C187.698 65.1877 187.186 65.1056 186.74 64.9413C186.302 64.7692 185.93 64.5307 185.625 64.2256C185.328 63.9127 185.101 63.5372 184.945 63.0992C184.788 62.6611 184.71 62.1722 184.71 61.6325V55.3433H183.677C183.49 55.3433 183.329 55.2846 183.196 55.1673C183.063 55.0421 182.997 54.8622 182.997 54.6275V53.2078L184.933 52.8323L185.649 49.8637C185.743 49.4882 186.008 49.3005 186.447 49.3005H188.347V52.8557H191.304V55.3433H188.347V61.3861C188.347 61.6677 188.414 61.9023 188.547 62.0901C188.688 62.27 188.887 62.3599 189.145 62.3599C189.278 62.3599 189.388 62.3482 189.474 62.3247C189.568 62.2935 189.646 62.2622 189.708 62.2309C189.779 62.1918 189.841 62.1605 189.896 62.137C189.959 62.1057 190.029 62.0901 190.107 62.0901C190.217 62.0901 190.303 62.1175 190.366 62.1722C190.436 62.2191 190.506 62.2974 190.577 62.4069L191.68 64.1317C191.21 64.4837 190.682 64.7497 190.096 64.9296C189.509 65.1017 188.903 65.1877 188.277 65.1877ZM193.402 65V52.8323H195.561C195.741 52.8323 195.89 52.8479 196.007 52.8792C196.132 52.9105 196.234 52.9613 196.312 53.0317C196.398 53.0943 196.461 53.1804 196.5 53.2899C196.547 53.3994 196.586 53.5324 196.617 53.6888L196.816 54.827C197.262 54.1386 197.763 53.595 198.318 53.196C198.874 52.7971 199.48 52.5976 200.137 52.5976C200.692 52.5976 201.138 52.7306 201.475 52.9965L201.005 55.6718C200.974 55.8361 200.911 55.9534 200.818 56.0238C200.724 56.0864 200.599 56.1177 200.442 56.1177C200.309 56.1177 200.153 56.102 199.973 56.0707C199.793 56.0316 199.566 56.0121 199.292 56.0121C198.338 56.0121 197.587 56.5205 197.039 57.5374V65H193.402ZM211.268 65C210.924 65 210.662 64.9531 210.482 64.8592C210.31 64.7653 210.165 64.5698 210.048 64.2725L209.79 63.6037C209.485 63.8618 209.191 64.0887 208.91 64.2843C208.628 64.4798 208.335 64.648 208.03 64.7888C207.732 64.9218 207.412 65.0196 207.067 65.0821C206.731 65.1525 206.356 65.1877 205.941 65.1877C205.386 65.1877 204.881 65.1173 204.427 64.9765C203.974 64.8279 203.586 64.6128 203.266 64.3312C202.953 64.0496 202.71 63.7015 202.538 63.2869C202.366 62.8645 202.28 62.3795 202.28 61.8319C202.28 61.4017 202.39 60.9597 202.609 60.506C202.828 60.0523 203.207 59.6417 203.747 59.274C204.287 58.8985 205.014 58.5856 205.929 58.3353C206.844 58.085 207.998 57.9442 209.391 57.9129V57.3966C209.391 56.6848 209.242 56.1724 208.945 55.8595C208.655 55.5388 208.241 55.3785 207.701 55.3785C207.271 55.3785 206.919 55.4254 206.645 55.5193C206.371 55.6131 206.125 55.7187 205.906 55.8361C205.695 55.9534 205.487 56.059 205.284 56.1529C205.081 56.2467 204.838 56.2937 204.556 56.2937C204.306 56.2937 204.091 56.235 203.911 56.1177C203.739 55.9925 203.602 55.84 203.5 55.6601L202.843 54.5219C203.579 53.8727 204.392 53.3916 205.284 53.0787C206.183 52.758 207.146 52.5976 208.17 52.5976C208.906 52.5976 209.567 52.7189 210.153 52.9613C210.748 53.196 211.248 53.5285 211.655 53.9587C212.07 54.3811 212.387 54.8857 212.606 55.4723C212.825 56.059 212.934 56.7004 212.934 57.3966V65H211.268ZM207.091 62.7824C207.56 62.7824 207.971 62.7002 208.323 62.5359C208.675 62.3717 209.031 62.1057 209.391 61.7381V60.0484C208.663 60.0797 208.065 60.1423 207.595 60.2362C207.126 60.33 206.755 60.4474 206.481 60.5882C206.207 60.729 206.015 60.8893 205.906 61.0693C205.804 61.2492 205.753 61.4447 205.753 61.6559C205.753 62.0705 205.867 62.3639 206.094 62.5359C206.32 62.7002 206.653 62.7824 207.091 62.7824ZM215.517 68.8603V52.8323H217.77C217.997 52.8323 218.184 52.8831 218.333 52.9848C218.49 53.0865 218.599 53.239 218.662 53.4424L218.932 54.3342C219.166 54.076 219.417 53.8414 219.682 53.6302C219.956 53.419 220.246 53.239 220.551 53.0904C220.864 52.934 221.196 52.8127 221.548 52.7267C221.908 52.6406 222.299 52.5976 222.721 52.5976C223.355 52.5976 223.942 52.7384 224.482 53.02C225.021 53.3016 225.487 53.7084 225.878 54.2403C226.269 54.7722 226.574 55.4254 226.793 56.1998C227.02 56.9664 227.133 57.8386 227.133 58.8164C227.133 59.7316 227.004 60.5764 226.746 61.3509C226.496 62.1253 226.14 62.798 225.678 63.369C225.225 63.9401 224.677 64.3859 224.036 64.7067C223.402 65.0274 222.698 65.1877 221.924 65.1877C221.29 65.1877 220.758 65.0978 220.328 64.9179C219.898 64.738 219.506 64.4955 219.154 64.1904V68.8603H215.517ZM221.454 55.3785C221.188 55.3785 220.946 55.4058 220.727 55.4606C220.516 55.5075 220.316 55.5779 220.128 55.6718C219.948 55.7657 219.78 55.8869 219.624 56.0355C219.467 56.1763 219.311 56.3406 219.154 56.5284V61.6911C219.428 61.9962 219.725 62.2113 220.046 62.3365C220.367 62.4538 220.703 62.5125 221.055 62.5125C221.392 62.5125 221.701 62.446 221.982 62.313C222.264 62.18 222.506 61.9688 222.71 61.6794C222.921 61.3821 223.085 60.9988 223.203 60.5295C223.32 60.0602 223.379 59.4891 223.379 58.8164C223.379 58.175 223.332 57.6352 223.238 57.1972C223.144 56.7591 223.011 56.4071 222.839 56.1411C222.675 55.8674 222.475 55.6718 222.24 55.5545C222.006 55.4371 221.744 55.3785 221.454 55.3785Z" fill="#D63384"/>
</svg>
