<svg width="1920" height="1080" viewBox="0 0 1920 1080" fill="none" xmlns="http://www.w3.org/2000/svg">
<rect width="1920" height="1080" fill="white"/>
<path d="M600 539.542C600.207 340.716 761.646 179.749 960.502 180C1159.36 180.251 1320.27 341.646 1320 540.473C1319.73 739.299 1158.65 900 960 900C761.07 899.897 599.897 738.532 600 539.601V539.542ZM952.705 662.811C924.777 663.627 896.851 661.124 869.513 655.354C859.571 653.328 850.259 648.954 842.352 642.596C834.446 636.238 828.175 628.082 824.062 618.807C815.921 600.035 811.984 571.083 812.249 531.953C812.398 511.505 813.68 491.082 816.089 470.776C818.431 450.999 820.774 434.702 823.117 421.885L825.583 409.142C825.613 408.769 825.613 408.393 825.583 408.02C825.578 406.299 824.971 404.634 823.868 403.313C822.765 401.992 821.236 401.098 819.544 400.784L773.104 393.549H772.1C770.457 393.565 768.867 394.129 767.581 395.15C766.294 396.172 765.385 397.593 764.998 399.19C764.2 402.143 763.742 404.373 762.354 411.46C759.696 425.134 757.245 438.468 754.514 457.915C751.65 479.037 749.905 500.295 749.286 521.602C748.267 536.444 748.267 551.338 749.286 566.181C750.379 605.557 757.142 637.029 769.575 660.596C782.008 684.162 803.065 701.104 832.745 711.421C862.425 721.767 903.77 726.832 956.781 726.615H963.455C1016.52 726.832 1057.87 721.767 1087.49 711.421C1117.11 701.075 1138.17 684.133 1150.66 660.596C1163.09 637.029 1169.86 605.557 1170.96 566.181C1171.97 551.338 1171.97 536.444 1170.96 521.602C1170.34 500.295 1168.59 479.037 1165.72 457.915C1163.01 438.719 1160.54 425.429 1157.9 411.46C1156.42 404.373 1156.04 402.172 1155.24 399.19C1154.87 397.586 1153.96 396.155 1152.67 395.131C1151.38 394.107 1149.78 393.549 1148.14 393.549H1146.94L1100.5 400.784C1098.79 401.069 1097.24 401.953 1096.12 403.279C1095 404.605 1094.39 406.286 1094.4 408.02C1094.37 408.393 1094.37 408.769 1094.4 409.142L1096.85 421.885C1099.2 434.742 1101.56 451.039 1103.96 470.776C1106.33 491.084 1107.59 511.507 1107.74 531.953C1108.13 571.014 1104.19 599.941 1095.92 618.734C1091.84 627.994 1085.61 636.148 1077.75 642.517C1069.89 648.886 1060.61 653.287 1050.71 655.354C1023.39 661.138 995.485 663.656 967.575 662.855L952.705 662.811Z" fill="#283A97"/>
</svg>
