<svg width="1920" height="1080" viewBox="0 0 1920 1080" fill="none" xmlns="http://www.w3.org/2000/svg">
<rect width="1920" height="1080" fill="white"/>
<path fill-rule="evenodd" clip-rule="evenodd" d="M688.372 181.525C635.25 181.525 595.942 226.472 597.702 275.217C599.39 322.047 597.197 382.698 581.402 432.16C565.559 481.767 538.765 513.191 495 517.225V562.775C538.765 566.809 565.559 598.233 581.402 647.84C597.197 697.302 599.39 757.953 597.702 804.783C595.942 853.52 635.25 898.475 688.38 898.475H1232.7C1285.82 898.475 1325.12 853.528 1323.36 804.783C1321.67 757.953 1323.87 697.302 1339.66 647.84C1355.51 598.233 1382.24 566.809 1426 562.775V517.225C1382.24 513.191 1355.51 481.767 1339.66 432.16C1323.87 382.706 1321.67 322.047 1323.36 275.217C1325.12 226.48 1285.82 181.525 1232.7 181.525H688.364H688.372ZM1126.19 622.853C1126.19 689.972 1074.4 730.678 988.454 730.678H842.153C837.968 730.678 833.954 729.071 830.995 726.21C828.035 723.349 826.373 719.469 826.373 715.424V364.576C826.373 360.531 828.035 356.651 830.995 353.79C833.954 350.929 837.968 349.322 842.153 349.322H987.617C1059.28 349.322 1106.31 386.847 1106.31 444.463C1106.31 484.902 1074.67 521.108 1034.36 527.446V529.558C1089.24 535.378 1126.19 572.11 1126.19 622.853ZM972.5 397.678H889.081V511.581H959.34C1013.65 511.581 1043.6 490.439 1043.6 452.647C1043.6 417.234 1017.85 397.678 972.5 397.678ZM889.081 556.78V682.307H975.57C1032.12 682.307 1062.07 660.371 1062.07 619.147C1062.07 577.914 1031.28 556.772 971.932 556.772L889.081 556.78Z" fill="#6610F2"/>
</svg>
